<svg width="25" height="25" viewBox="0 0 25 25" fill="none" xmlns="http://www.w3.org/2000/svg">
<g id="account_circle">
<mask id="mask0_2288_2442" style="mask-type:alpha" maskUnits="userSpaceOnUse" x="0" y="0" width="25" height="25">
<rect id="Bounding box" width="25" height="25" fill="#D9D9D9"/>
</mask>
<g mask="url(#mask0_2288_2442)">
<path id="account_circle_2" d="M6.09373 17.8112C6.97915 17.1341 7.96873 16.6003 9.06248 16.2096C10.1562 15.819 11.3021 15.6237 12.5 15.6237C13.6979 15.6237 14.8437 15.819 15.9375 16.2096C17.0312 16.6003 18.0208 17.1341 18.9062 17.8112C19.5139 17.0994 19.987 16.2921 20.3255 15.3893C20.664 14.4865 20.8333 13.523 20.8333 12.4987C20.8333 10.1897 20.0217 8.22353 18.3984 6.60026C16.7752 4.977 14.809 4.16536 12.5 4.16536C10.191 4.16536 8.22481 4.977 6.60154 6.60026C4.97828 8.22353 4.16665 10.1897 4.16665 12.4987C4.16665 13.523 4.33592 14.4865 4.67446 15.3893C5.013 16.2921 5.48609 17.0994 6.09373 17.8112ZM12.5 13.5404C11.4757 13.5404 10.612 13.1888 9.90883 12.4857C9.20571 11.7826 8.85415 10.9188 8.85415 9.89453C8.85415 8.87023 9.20571 8.00651 9.90883 7.30339C10.612 6.60026 11.4757 6.2487 12.5 6.2487C13.5243 6.2487 14.388 6.60026 15.0911 7.30339C15.7943 8.00651 16.1458 8.87023 16.1458 9.89453C16.1458 10.9188 15.7943 11.7826 15.0911 12.4857C14.388 13.1888 13.5243 13.5404 12.5 13.5404ZM12.5 22.9154C11.059 22.9154 9.70484 22.6419 8.43748 22.0951C7.17012 21.5482 6.06769 20.806 5.13019 19.8685C4.19269 18.931 3.4505 17.8286 2.90363 16.5612C2.35675 15.2938 2.08331 13.9397 2.08331 12.4987C2.08331 11.0577 2.35675 9.70356 2.90363 8.4362C3.4505 7.16884 4.19269 6.06641 5.13019 5.12891C6.06769 4.19141 7.17012 3.44922 8.43748 2.90234C9.70484 2.35547 11.059 2.08203 12.5 2.08203C13.941 2.08203 15.2951 2.35547 16.5625 2.90234C17.8298 3.44922 18.9323 4.19141 19.8698 5.12891C20.8073 6.06641 21.5495 7.16884 22.0963 8.4362C22.6432 9.70356 22.9166 11.0577 22.9166 12.4987C22.9166 13.9397 22.6432 15.2938 22.0963 16.5612C21.5495 17.8286 20.8073 18.931 19.8698 19.8685C18.9323 20.806 17.8298 21.5482 16.5625 22.0951C15.2951 22.6419 13.941 22.9154 12.5 22.9154ZM12.5 20.832C13.4201 20.832 14.2882 20.6975 15.1041 20.4284C15.9201 20.1593 16.6666 19.773 17.3437 19.2695C16.6666 18.7661 15.9201 18.3798 15.1041 18.1107C14.2882 17.8416 13.4201 17.707 12.5 17.707C11.5798 17.707 10.7118 17.8416 9.89581 18.1107C9.07984 18.3798 8.33331 18.7661 7.65623 19.2695C8.33331 19.773 9.07984 20.1593 9.89581 20.4284C10.7118 20.6975 11.5798 20.832 12.5 20.832ZM12.5 11.457C12.9514 11.457 13.3246 11.3095 13.6198 11.0143C13.9149 10.7192 14.0625 10.3459 14.0625 9.89453C14.0625 9.44314 13.9149 9.06988 13.6198 8.77474C13.3246 8.4796 12.9514 8.33203 12.5 8.33203C12.0486 8.33203 11.6753 8.4796 11.3802 8.77474C11.085 9.06988 10.9375 9.44314 10.9375 9.89453C10.9375 10.3459 11.085 10.7192 11.3802 11.0143C11.6753 11.3095 12.0486 11.457 12.5 11.457Z" fill="#EE7214"/>
</g>
</g>
</svg>
