<svg width="24" height="25" viewBox="0 0 24 25" fill="none" xmlns="http://www.w3.org/2000/svg">
<mask id="mask0_1747_2782" style="mask-type:alpha" maskUnits="userSpaceOnUse" x="0" y="0" width="24" height="25">
<rect y="0.5" width="24" height="24" fill="#D9D9D9"/>
</mask>
<g mask="url(#mask0_1747_2782)">
<path d="M11.2929 17.7929C11.6834 18.1834 12.3166 18.1834 12.7071 17.7929L15.3 15.2C15.6866 14.8134 15.6866 14.1866 15.3 13.8C14.9134 13.4134 14.2866 13.4134 13.9 13.8L13 14.7V11.5C13 10.9477 12.5523 10.5 12 10.5C11.4477 10.5 11 10.9477 11 11.5V14.7L10.1 13.8C9.7134 13.4134 9.0866 13.4134 8.7 13.8C8.3134 14.1866 8.3134 14.8134 8.7 15.2L11.2929 17.7929ZM5 8.5V19.5H19V8.5H5ZM5 21.5C4.45 21.5 3.97917 21.3042 3.5875 20.9125C3.19583 20.5208 3 20.05 3 19.5V7.025C3 6.79167 3.0375 6.56667 3.1125 6.35C3.1875 6.13333 3.3 5.93333 3.45 5.75L4.7 4.225C4.88333 3.99167 5.1125 3.8125 5.3875 3.6875C5.6625 3.5625 5.95 3.5 6.25 3.5H17.75C18.05 3.5 18.3375 3.5625 18.6125 3.6875C18.8875 3.8125 19.1167 3.99167 19.3 4.225L20.55 5.75C20.7 5.93333 20.8125 6.13333 20.8875 6.35C20.9625 6.56667 21 6.79167 21 7.025V19.5C21 20.05 20.8042 20.5208 20.4125 20.9125C20.0208 21.3042 19.55 21.5 19 21.5H5ZM5.4 6.5H18.6L17.75 5.5H6.25L5.4 6.5Z" fill="#FF6868"/>
</g>
</svg>
