<svg width="100" height="14" viewBox="0 0 100 14" fill="none" xmlns="http://www.w3.org/2000/svg">
<path d="M0 0H8.29008C13.2104 0.0393191 15.6705 3.46003 15.6705 6.88073C15.6705 10.3014 13.2104 13.7221 8.29008 13.7615H0V0ZM3.49383 2.75229V10.9895H8.18672C10.7709 10.9895 12.0527 8.92529 12.0527 6.88073C12.0527 4.81651 10.7709 2.75229 8.18672 2.75229H3.49383Z" fill="black"/>
<path d="M21.8456 10.9895H31.3968V13.7615H18.3518V0H31.2521V2.77195H21.8456V5.50459H29.8669V8.25688H21.8456V10.9895Z" fill="black"/>
<path d="M37.4113 10.9895H46.6731V13.7615H33.9175V0H37.4113V10.9895Z" fill="black"/>
<path d="M48.9785 13.7615V0H57.7027C60.8864 0 62.4576 2.14286 62.4576 4.30537C62.4576 5.97641 61.486 7.6671 59.5427 8.31586L64.0081 13.7615H59.6254L55.8008 8.59109H52.4723V13.7615H48.9785ZM52.4723 2.77195V5.83879H56.8551C58.1782 5.83879 58.8398 5.07208 58.8398 4.30537C58.8398 3.53866 58.1782 2.77195 56.8551 2.77195H52.4723Z" fill="black"/>
<path d="M85.1562 13.7615H80.6701L69.5477 0H73.6824L77.0936 4.08912L80.5047 0H84.6187L79.2436 6.66448L85.1562 13.7615ZM75.6051 11.0682L73.5171 13.7615H69.0309L73.4137 8.47313L75.6051 11.0682Z" fill="#FF5D25"/>
<path d="M87.2444 13.7615V0H90.7383V13.7615H87.2444ZM93.4878 10.9895H100V13.7615H93.4878V10.9895Z" fill="#FF5D25"/>
</svg>
