<svg width="30" height="30" viewBox="0 0 30 30" fill="none" xmlns="http://www.w3.org/2000/svg">
<circle cx="15" cy="15" r="15" fill="#810CA8" fill-opacity="0.1"/>
<mask id="mask0_1747_2732" style="mask-type:alpha" maskUnits="userSpaceOnUse" x="6" y="5" width="18" height="19">
<rect x="6" y="5.5" width="18" height="18" fill="#D9D9D9"/>
</mask>
<g mask="url(#mask0_1747_2732)">
<path d="M9.75 21.25C9.3375 21.25 8.98438 21.1031 8.69063 20.8094C8.39688 20.5156 8.25 20.1625 8.25 19.75V9.25C8.25 8.8375 8.39688 8.48438 8.69063 8.19063C8.98438 7.89688 9.3375 7.75 9.75 7.75H20.25C20.6625 7.75 21.0156 7.89688 21.3094 8.19063C21.6031 8.48438 21.75 8.8375 21.75 9.25V19.75C21.75 20.1625 21.6031 20.5156 21.3094 20.8094C21.0156 21.1031 20.6625 21.25 20.25 21.25H9.75ZM9.75 9.25V19.75H20.25V9.25H18.75V14.5L16.875 13.375L15 14.5V9.25H9.75Z" fill="#810CA8"/>
</g>
</svg>
