<svg width="62" height="62" viewBox="0 0 62 62" fill="none" xmlns="http://www.w3.org/2000/svg">
<g filter="url(#filter0_d_1747_2743)">
<circle cx="29" cy="27" r="15" fill="#D83A56" fill-opacity="0.1" shape-rendering="crispEdges"/>
</g>
<mask id="mask0_1747_2743" style="mask-type:alpha" maskUnits="userSpaceOnUse" x="20" y="18" width="18" height="18">
<rect x="20" y="18" width="18" height="18" fill="#D9D9D9"/>
</mask>
<g mask="url(#mask0_1747_2743)">
<path d="M22.5 34C22.0875 34 21.7344 33.8531 21.4406 33.5594C21.1469 33.2656 21 32.9125 21 32.5V24.25C21 23.8375 21.1469 23.4844 21.4406 23.1906C21.7344 22.8969 22.0875 22.75 22.5 22.75H26.25V20.5C26.25 20.0875 26.3969 19.7344 26.6906 19.4406C26.9844 19.1469 27.3375 19 27.75 19H29.25C29.6625 19 30.0156 19.1469 30.3094 19.4406C30.6031 19.7344 30.75 20.0875 30.75 20.5V22.75H34.5C34.9125 22.75 35.2656 22.8969 35.5594 23.1906C35.8531 23.4844 36 23.8375 36 24.25V32.5C36 32.9125 35.8531 33.2656 35.5594 33.5594C35.2656 33.8531 34.9125 34 34.5 34H22.5ZM22.5 32.5H34.5V24.25H30.75C30.75 24.6625 30.6031 25.0156 30.3094 25.3094C30.0156 25.6031 29.6625 25.75 29.25 25.75H27.75C27.3375 25.75 26.9844 25.6031 26.6906 25.3094C26.3969 25.0156 26.25 24.6625 26.25 24.25H22.5V32.5ZM24 31H28.5V30.6625C28.5 30.45 28.4406 30.2531 28.3219 30.0719C28.2031 29.8906 28.0375 29.75 27.825 29.65C27.575 29.5375 27.3219 29.4531 27.0656 29.3969C26.8094 29.3406 26.5375 29.3125 26.25 29.3125C25.9625 29.3125 25.6906 29.3406 25.4344 29.3969C25.1781 29.4531 24.925 29.5375 24.675 29.65C24.4625 29.75 24.2969 29.8906 24.1781 30.0719C24.0594 30.2531 24 30.45 24 30.6625V31ZM30 29.875H33V28.75H30V29.875ZM26.25 28.75C26.5625 28.75 26.8281 28.6406 27.0469 28.4219C27.2656 28.2031 27.375 27.9375 27.375 27.625C27.375 27.3125 27.2656 27.0469 27.0469 26.8281C26.8281 26.6094 26.5625 26.5 26.25 26.5C25.9375 26.5 25.6719 26.6094 25.4531 26.8281C25.2344 27.0469 25.125 27.3125 25.125 27.625C25.125 27.9375 25.2344 28.2031 25.4531 28.4219C25.6719 28.6406 25.9375 28.75 26.25 28.75ZM30 27.625H33V26.5H30V27.625ZM27.75 24.25H29.25V20.5H27.75V24.25Z" fill="#D83A56"/>
</g>
<defs>
<filter id="filter0_d_1747_2743" x="0" y="0" width="62" height="62" filterUnits="userSpaceOnUse" color-interpolation-filters="sRGB">
<feFlood flood-opacity="0" result="BackgroundImageFix"/>
<feColorMatrix in="SourceAlpha" type="matrix" values="0 0 0 0 0 0 0 0 0 0 0 0 0 0 0 0 0 0 127 0" result="hardAlpha"/>
<feOffset dx="2" dy="4"/>
<feGaussianBlur stdDeviation="8"/>
<feComposite in2="hardAlpha" operator="out"/>
<feColorMatrix type="matrix" values="0 0 0 0 0 0 0 0 0 0 0 0 0 0 0 0 0 0 0.07 0"/>
<feBlend mode="normal" in2="BackgroundImageFix" result="effect1_dropShadow_1747_2743"/>
<feBlend mode="normal" in="SourceGraphic" in2="effect1_dropShadow_1747_2743" result="shape"/>
</filter>
</defs>
</svg>
