<svg width="352" height="320" viewBox="0 0 352 320" fill="none" xmlns="http://www.w3.org/2000/svg">
<g filter="url(#filter0_d_2954_1538)">
<path d="M324 244.734H4V244.894H324V244.734Z" fill="#EBEBEB"/>
<path d="M291.937 255.035H270.739V255.195H291.937V255.035Z" fill="#EBEBEB"/>
<path d="M215.981 256.773H210.417V256.933H215.981V256.773Z" fill="#EBEBEB"/>
<path d="M270.098 249.094H257.815V249.254H270.098V249.094Z" fill="#EBEBEB"/>
<path d="M65.2172 250.168H37.5737V250.328H65.2172V250.168Z" fill="#EBEBEB"/>
<path d="M74.969 250.168H70.9159V250.328H74.969V250.168Z" fill="#EBEBEB"/>
<path d="M148.094 252.871H88.1414V253.031H148.094V252.871Z" fill="#EBEBEB"/>
<path d="M155.689 216.191H32.1056C30.0916 216.191 28.4525 214.552 28.4525 212.538V38.8211C28.4525 36.807 30.0916 35.168 32.1056 35.168H155.689C157.702 35.168 159.341 36.807 159.341 38.8211V212.538C159.341 214.552 157.702 216.191 155.689 216.191ZM32.1056 35.3286C30.1792 35.3286 28.6125 36.8953 28.6125 38.8217V212.538C28.6125 214.465 30.1792 216.031 32.1056 216.031H155.689C157.615 216.031 159.181 214.465 159.181 212.538V38.8211C159.181 36.8953 157.615 35.328 155.689 35.328L32.1056 35.3286Z" fill="#EBEBEB"/>
<path d="M294.118 216.191H170.536C168.522 216.191 166.883 214.552 166.883 212.538V38.8211C166.883 36.807 168.522 35.168 170.536 35.168H294.118C296.133 35.168 297.772 36.807 297.772 38.8211V212.538C297.772 214.552 296.133 216.191 294.118 216.191ZM170.536 35.3286C168.61 35.3286 167.043 36.8953 167.043 38.8217V212.538C167.043 214.465 168.61 216.031 170.536 216.031H294.118C296.045 216.031 297.612 214.465 297.612 212.538V38.8211C297.612 36.8953 296.045 35.328 294.118 35.328L170.536 35.3286Z" fill="#EBEBEB"/>
<path d="M169.34 244.738H187.829V178.869H169.34V244.738Z" fill="#E6E6E6"/>
<path d="M172.851 244.735H169.34V238.629H176.533L172.851 244.735Z" fill="#F0F0F0"/>
<path d="M274.831 244.738H293.32V178.869H274.831V244.738Z" fill="#E6E6E6"/>
<path d="M169.34 243.133H277.896V178.865H169.34V243.133Z" fill="#F0F0F0"/>
<path d="M242.106 182.682V239.566H274.286V182.682H242.106Z" fill="#E6E6E6"/>
<path d="M255.013 185.944H261.379C264.145 185.944 266.789 184.616 268.69 182.273H247.702C249.604 184.616 252.248 185.944 255.013 185.944Z" fill="#F0F0F0"/>
<path d="M207.528 182.682V239.566H239.707V182.682H207.528Z" fill="#E6E6E6"/>
<path d="M220.109 185.944H226.475C229.24 185.944 231.884 184.616 233.786 182.273H212.798C214.7 184.616 217.344 185.944 220.109 185.944Z" fill="#F0F0F0"/>
<path d="M172.949 182.682V239.566H205.128V182.682H172.949Z" fill="#E6E6E6"/>
<path d="M185.53 185.944H191.896C194.662 185.944 197.306 184.616 199.207 182.273H178.219C180.122 184.616 182.765 185.944 185.53 185.944Z" fill="#F0F0F0"/>
<path d="M274.384 244.735H277.896V238.629H270.702L274.384 244.735Z" fill="#F0F0F0"/>
<path d="M53.0579 161.742L177.106 161.742V56.1204L53.0579 56.1204L53.0579 161.742Z" fill="#E6E6E6"/>
<path d="M50.2658 161.742L175.893 161.742V56.1204L50.2658 56.1204L50.2658 161.742Z" fill="#F5F5F5"/>
<path d="M170.882 156.676L170.882 61.1914L55.2772 61.1914L55.2772 156.676H170.882Z" fill="#FAFAFA"/>
<path d="M156.696 156.676L111.198 61.1914H95.7428L141.242 156.676H156.696Z" fill="white"/>
<path d="M136.861 156.676L91.362 61.1914H80.7207L126.22 156.676H136.861Z" fill="white"/>
<path d="M98.2029 156.676L98.2029 61.1914H92.2246L92.2246 156.676H98.2029Z" fill="#E6E6E6"/>
<path d="M137.94 156.676L137.94 61.1914H131.961L131.961 156.676H137.94Z" fill="#E6E6E6"/>
<path d="M97.1249 159.891L97.1249 57.4219H89.5684L89.5684 159.891H97.1249Z" fill="#F5F5F5"/>
<path d="M136.862 159.891L136.862 57.4219H129.305L129.305 159.891H136.862Z" fill="#F5F5F5"/>
<path d="M55.8093 156.676L55.8093 61.1914H55.2775L55.2775 156.676H55.8093Z" fill="#E6E6E6"/>
<path d="M48.1619 49.6016H182.554C182.909 49.6016 183.201 49.8921 183.201 50.248C183.201 50.6032 182.91 50.8944 182.554 50.8944H48.1619C47.8067 50.8944 47.5155 50.6038 47.5155 50.248C47.5155 49.8921 47.8067 49.6016 48.1619 49.6016Z" fill="#E6E6E6"/>
<path d="M177.106 53.8647C177.586 53.8647 177.978 53.4717 177.978 52.9923V51.1184C177.978 50.6384 177.586 50.2461 177.106 50.2461C176.626 50.2461 176.234 50.6391 176.234 51.1184V52.9923C176.234 53.4723 176.626 53.8647 177.106 53.8647Z" fill="#E6E6E6"/>
<path d="M57.9085 53.8647C58.3885 53.8647 58.7808 53.4717 58.7808 52.9923V51.1184C58.7808 50.6384 58.3885 50.2461 57.9085 50.2461C57.4285 50.2461 57.0361 50.6391 57.0361 51.1184V52.9923C57.0355 53.4723 57.4285 53.8647 57.9085 53.8647Z" fill="#E6E6E6"/>
<path opacity="0.6" d="M48.3681 102.672L173.903 102.672V50.2495L48.3681 50.2495V102.672Z" fill="#F0F0F0"/>
<path d="M50.0867 244.734H53.311L53.311 191.843H50.0867L50.0867 244.734Z" fill="#E6E6E6"/>
<path d="M125.754 181.551H108.289V191.844H125.754V181.551Z" fill="#E6E6E6"/>
<path d="M38.9185 191.844H108.289V181.551H38.9185V191.844Z" fill="#F5F5F5"/>
<path d="M125.754 198.242H108.289V208.535H125.754V198.242Z" fill="#E6E6E6"/>
<path d="M38.9185 208.535H108.289V198.242H38.9185V208.535Z" fill="#F5F5F5"/>
<path d="M125.754 214.938H108.289V225.231H125.754V214.938Z" fill="#E6E6E6"/>
<path d="M38.9185 225.23H108.289V214.937H38.9185V225.23Z" fill="#F5F5F5"/>
<path d="M119.457 244.734H122.681V191.843H119.457V244.734Z" fill="#E6E6E6"/>
<path d="M105.065 244.734H108.289V191.843H105.065V244.734Z" fill="#F5F5F5"/>
<path d="M38.9186 244.734H42.1429L42.1429 191.843H38.9186L38.9186 244.734Z" fill="#F5F5F5"/>
<path d="M164 273.638C232.532 273.638 288.089 270.394 288.089 266.391C288.089 262.389 232.532 259.145 164 259.145C95.4675 259.145 39.911 262.389 39.911 266.391C39.911 270.394 95.4675 273.638 164 273.638Z" fill="#F5F5F5"/>
<path d="M257.445 237.336H153.504C149.125 237.336 145.816 233.754 146.15 229.375L158.884 62.485C159.218 58.1062 163.074 54.5234 167.453 54.5234H271.394C275.773 54.5234 279.082 58.1062 278.748 62.485L266.014 229.375C265.68 233.754 261.824 237.336 257.445 237.336Z" fill="#5E86EC"/>
<path opacity="0.5" d="M257.445 237.336H153.504C149.125 237.336 145.816 233.754 146.15 229.375L158.884 62.485C159.218 58.1062 163.074 54.5234 167.453 54.5234H271.394C275.773 54.5234 279.082 58.1062 278.748 62.485L266.014 229.375C265.68 233.754 261.824 237.336 257.445 237.336Z" fill="white"/>
<path d="M255.897 237.336H151.956C147.577 237.336 144.268 233.754 144.602 229.375L157.336 62.485C157.67 58.1062 161.526 54.5234 165.905 54.5234H269.846C274.225 54.5234 277.534 58.1062 277.199 62.485L264.465 229.375C264.132 233.754 260.276 237.336 255.897 237.336Z" fill="#5E86EC"/>
<path opacity="0.7" d="M255.897 237.336H151.956C147.577 237.336 144.268 233.754 144.602 229.375L157.336 62.485C157.67 58.1062 161.526 54.5234 165.905 54.5234H269.846C274.225 54.5234 277.534 58.1062 277.199 62.485L264.465 229.375C264.132 233.754 260.276 237.336 255.897 237.336Z" fill="white"/>
<path d="M152.159 234.684C149.232 234.684 147.033 232.303 147.256 229.377L159.821 64.6981C160.045 61.7714 162.607 59.3906 165.534 59.3906H269.475C272.402 59.3906 274.601 61.7714 274.378 64.6981L261.813 229.377C261.589 232.303 259.027 234.684 256.1 234.684H152.159Z" fill="#5E86EC"/>
<path opacity="0.2" d="M255.369 87.0894H180.986C179.255 87.0894 177.948 85.6737 178.079 83.9431C178.211 82.2126 179.735 80.7969 181.466 80.7969H255.849C257.58 80.7969 258.887 82.2126 258.755 83.9431C258.623 85.6737 257.099 87.0894 255.369 87.0894Z" fill="black"/>
<path opacity="0.3" d="M223.636 57.7663H211.62C211.194 57.7663 210.872 57.4181 210.905 56.9925C210.938 56.5669 211.312 56.2188 211.738 56.2188H223.754C224.18 56.2188 224.502 56.5669 224.469 56.9925C224.437 57.4181 224.061 57.7663 223.636 57.7663Z" fill="#5E86EC"/>
<path d="M180.66 83.9442C181.027 79.1314 177.422 75.2383 172.618 75.2383H248.134C252.938 75.2383 256.543 79.132 256.175 83.9442H180.66Z" fill="#F0F0F0"/>
<path d="M172.618 75.2383C167.814 75.2383 163.615 79.132 163.247 83.9442L155.509 185.364C155.142 190.177 150.943 194.07 146.139 194.07H221.654C226.458 194.07 230.658 190.176 231.025 185.364L238.763 83.9442C239.13 79.1314 243.329 75.2383 248.133 75.2383H172.618Z" fill="white"/>
<path d="M213.612 185.363C213.245 190.176 216.85 194.069 221.654 194.069H146.139C141.335 194.069 137.73 190.175 138.097 185.363H213.612Z" fill="#F0F0F0"/>
<path d="M169.411 183.361C169.693 179.655 168.53 176.656 164.831 176.656H222.983C226.682 176.656 229.466 180.042 227.563 183.361H169.411Z" fill="#E0E0E0"/>
<path d="M213.612 185.362C213.98 180.549 218.179 176.656 222.982 176.656H147.467C142.663 176.656 138.463 180.55 138.097 185.362H213.612Z" fill="#F0F0F0"/>
<path d="M249.319 210.508H162.628C161.371 210.508 160.421 209.48 160.517 208.223C160.613 206.966 161.72 205.938 162.977 205.938H249.668C250.925 205.938 251.875 206.966 251.779 208.223C251.683 209.48 250.576 210.508 249.319 210.508Z" fill="white"/>
<path d="M205.541 221.493H161.79C160.533 221.493 159.583 220.464 159.679 219.207C159.775 217.95 160.882 216.922 162.139 216.922H205.89C207.147 216.922 208.097 217.95 208.001 219.207C207.905 220.464 206.797 221.493 205.541 221.493Z" fill="white"/>
<path d="M235.831 221.493H218.109C216.853 221.493 215.903 220.464 215.999 219.207C216.095 217.95 217.201 216.922 218.458 216.922H236.18C237.437 216.922 238.387 217.95 238.291 219.207C238.195 220.464 237.088 221.493 235.831 221.493Z" fill="white"/>
<path d="M253.554 178.034L249.032 178.742C248.851 178.174 248.679 177.779 248.515 177.559C248.352 177.338 248.07 177.116 247.671 176.892L247.406 180.367C249.791 181.017 251.364 181.702 252.126 182.423C253.133 183.392 253.58 184.622 253.466 186.113C253.4 186.986 253.144 187.788 252.7 188.517C252.256 189.246 251.713 189.855 251.071 190.344C250.429 190.833 249.76 191.187 249.062 191.408C248.365 191.628 247.522 191.758 246.534 191.798L246.36 194.068H244.607L244.78 191.798C243.611 191.694 242.671 191.504 241.959 191.228C241.247 190.951 240.644 190.569 240.148 190.081C239.653 189.593 239.283 189.066 239.037 188.501C238.792 187.937 238.628 187.254 238.545 186.453L243.441 185.889C243.525 186.682 243.676 187.254 243.892 187.607C244.11 187.959 244.488 188.272 245.028 188.544L245.352 184.299C243.769 183.85 242.652 183.461 242 183.132C241.348 182.804 240.802 182.277 240.361 181.552C239.92 180.826 239.739 179.943 239.818 178.901C239.927 177.474 240.516 176.282 241.587 175.324C242.657 174.367 244.18 173.836 246.159 173.732L246.25 172.543H248.003L247.912 173.732C249.697 173.844 251.037 174.268 251.929 175.006C252.822 175.743 253.363 176.752 253.554 178.034ZM245.922 176.832C245.396 177.001 245.024 177.21 244.805 177.46C244.586 177.71 244.463 178.003 244.438 178.341C244.411 178.695 244.49 179.002 244.671 179.264C244.856 179.526 245.194 179.745 245.686 179.921L245.922 176.832ZM246.772 188.664C247.465 188.512 247.983 188.26 248.325 187.911C248.668 187.561 248.856 187.17 248.889 186.736C248.918 186.358 248.81 186.01 248.566 185.693C248.325 185.376 247.824 185.081 247.066 184.809L246.772 188.664Z" fill="white"/>
<path d="M168.304 103.469H170.456L169.926 110.419H167.773L168.304 103.469Z" fill="#5E86EC"/>
<path d="M172.011 103.469H174.016L176.339 107.313L176.632 103.469H178.657L178.126 110.419H176.102L173.79 106.603L173.499 110.419H171.48L172.011 103.469Z" fill="#5E86EC"/>
<path d="M179.401 103.469H181.645L182.828 108.47L184.753 103.469H186.933L183.823 110.419H181.495L179.401 103.469Z" fill="#5E86EC"/>
<path d="M186.767 106.949C186.854 105.814 187.237 104.931 187.917 104.299C188.598 103.667 189.502 103.352 190.63 103.352C191.787 103.352 192.655 103.662 193.233 104.283C193.811 104.904 194.058 105.773 193.972 106.892C193.91 107.704 193.722 108.37 193.409 108.89C193.096 109.41 192.67 109.814 192.132 110.104C191.593 110.393 190.938 110.537 190.167 110.537C189.383 110.537 188.744 110.413 188.25 110.163C187.755 109.913 187.369 109.519 187.091 108.978C186.813 108.437 186.706 107.761 186.767 106.949ZM188.914 106.959C188.86 107.66 188.952 108.164 189.19 108.471C189.427 108.777 189.77 108.93 190.219 108.93C190.68 108.93 191.049 108.781 191.325 108.48C191.601 108.18 191.768 107.641 191.827 106.863C191.877 106.209 191.782 105.731 191.541 105.429C191.3 105.128 190.954 104.977 190.502 104.977C190.069 104.977 189.709 105.13 189.424 105.437C189.138 105.743 188.968 106.251 188.914 106.959Z" fill="#5E86EC"/>
<path d="M195.476 103.469H197.628L197.098 110.419H194.945L195.476 103.469Z" fill="#5E86EC"/>
<path d="M203.482 107.574L205.32 108.143C205.154 108.671 204.921 109.112 204.622 109.466C204.323 109.82 203.965 110.087 203.549 110.267C203.132 110.447 202.612 110.537 201.99 110.537C201.235 110.537 200.626 110.427 200.164 110.209C199.702 109.989 199.318 109.603 199.012 109.05C198.707 108.498 198.587 107.79 198.653 106.928C198.74 105.778 199.114 104.895 199.772 104.278C200.431 103.66 201.32 103.352 202.438 103.352C203.314 103.352 203.988 103.528 204.462 103.883C204.936 104.237 205.267 104.78 205.454 105.513L203.526 105.935C203.476 105.723 203.418 105.569 203.352 105.471C203.245 105.306 203.107 105.18 202.94 105.092C202.773 105.003 202.582 104.959 202.367 104.959C201.881 104.959 201.492 105.155 201.204 105.546C200.986 105.837 200.853 106.292 200.806 106.914C200.747 107.684 200.824 108.212 201.036 108.498C201.247 108.784 201.565 108.927 201.989 108.927C202.4 108.927 202.719 108.811 202.947 108.58C203.176 108.348 203.354 108.013 203.482 107.574Z" fill="#5E86EC"/>
<path d="M206.716 103.469H212.47L212.357 104.952H208.755L208.67 106.057H212.012L211.904 107.475H208.562L208.458 108.845H212.164L212.044 110.419H206.185L206.716 103.469Z" fill="#5E86EC"/>
<path d="M229.512 119.393H167.089L167.221 117.66H229.644L229.512 119.393Z" fill="#5E86EC"/>
<path d="M229.512 119.395H167.089L166.684 124.695H229.107L229.512 119.395Z" fill="#F0F0F0"/>
<path d="M228.703 129.996H166.28L165.875 135.297H228.298L228.703 129.996Z" fill="#F0F0F0"/>
<path d="M227.894 140.598H165.471L165.066 145.898H227.489L227.894 140.598Z" fill="#F0F0F0"/>
<path d="M227.085 151.199H164.662L164.257 156.5H226.68L227.085 151.199Z" fill="#F0F0F0"/>
<path d="M226.144 163.533H163.721L163.853 161.801H226.276L226.144 163.533Z" fill="#5E86EC"/>
<path d="M219.003 87.0898H231.976L231.386 94.83H218.412L219.003 87.0898Z" fill="#F0F0F0"/>
<path d="M91.7946 136.324L94.1152 137.256C94.96 137.595 95.7011 138.149 96.265 138.863L97.328 140.209C98.032 141.101 97.9994 142.369 97.2499 143.223L96.1191 144.513C95.2525 145.5 93.7459 145.589 92.7699 144.71L91.6883 143.736C91.6883 143.736 88.3584 141.398 87.3805 138.31L88.0231 137.667C89.0688 136.621 90.4557 136.127 91.7946 136.324Z" fill="#FFB573"/>
<path d="M98.1466 113.868L97.3914 114.366L96.5511 114.943C95.9923 115.342 95.4317 115.747 94.8839 116.169C93.7933 117.017 92.7277 117.894 91.7402 118.826C89.7498 120.675 88.0186 122.703 86.7898 124.858C86.6323 125.126 86.4877 125.398 86.3546 125.671L86.2496 125.876C86.2707 125.827 86.3059 125.678 86.3181 125.615C86.3456 125.441 86.3418 125.345 86.3309 125.291C86.2695 125.106 86.2637 125.587 86.4083 126.062C86.6938 127.075 87.2851 128.365 87.9405 129.607C89.2583 132.128 90.9127 134.719 92.4698 137.276L92.5107 137.342C93.1565 138.403 92.8205 139.786 91.76 140.433C90.9415 140.931 89.9271 140.842 89.2115 140.289C87.8951 139.267 86.7187 138.213 85.5514 137.074C84.3891 135.941 83.28 134.741 82.2163 133.432C81.1655 132.099 80.1389 130.73 79.2736 128.869C79.0579 128.398 78.8512 127.887 78.6746 127.295C78.4992 126.704 78.3565 126.013 78.3431 125.141C78.3418 124.7 78.3731 124.217 78.4999 123.669C78.5504 123.416 78.6599 123.088 78.7431 122.856L78.8666 122.527C79.0279 122.086 79.2026 121.654 79.392 121.231C80.8947 117.823 83.0797 114.947 85.4931 112.467C86.7079 111.226 87.9904 110.084 89.3376 109.029C90.0128 108.502 90.6976 107.992 91.4112 107.51C91.769 107.27 92.1248 107.027 92.4986 106.798L93.0675 106.453L93.7165 106.078C95.856 104.841 98.5927 105.574 99.8291 107.713C101.018 109.772 100.385 112.384 98.4295 113.679L98.1466 113.868Z" fill="#FFB573"/>
<path d="M98.2201 103.715C94.48 103.737 90.3859 105.334 85.1366 111.841C85.1366 115.726 93.3369 120.89 93.3369 120.89C93.3369 120.89 106.779 103.666 98.2201 103.715Z" fill="#263238"/>
<path d="M70.4531 257.561C70.3878 257.561 70.3225 257.549 70.2553 257.526C69.479 257.253 68.7494 255.279 68.7027 254.184C68.6995 254.113 68.7385 254.047 68.8019 254.015C68.8659 253.983 68.9408 253.992 68.9965 254.037C69.0784 254.103 71.0086 255.683 71.0995 256.746C71.1187 256.973 71.0592 257.167 70.9235 257.324C70.7865 257.48 70.6246 257.561 70.4531 257.561ZM69.1117 254.611C69.287 255.652 69.8803 257.013 70.375 257.186C70.4461 257.212 70.5363 257.219 70.6528 257.086C70.7232 257.005 70.752 256.904 70.7417 256.777C70.6873 256.152 69.7382 255.174 69.1117 254.611Z" fill="#263238"/>
<path d="M71.6544 255.211C70.7571 255.211 69.4624 254.778 68.7833 254.325C68.7244 254.286 68.6937 254.216 68.7059 254.146C68.7174 254.076 68.7692 254.019 68.8371 254.002C68.9395 253.974 71.3529 253.346 72.2656 253.899C72.4608 254.017 72.5824 254.179 72.6278 254.381C72.6912 254.661 72.6099 254.894 72.398 255.04C72.2252 255.16 71.9628 255.211 71.6544 255.211ZM69.3696 254.247C70.3136 254.718 71.7619 255.042 72.1939 254.744C72.2572 254.7 72.3161 254.633 72.2771 254.461C72.2534 254.357 72.1888 254.274 72.0793 254.207C71.543 253.882 70.1932 254.073 69.3696 254.247Z" fill="#263238"/>
<path d="M62.0749 253.755C63.1565 252.436 64.9773 250.676 66.8499 246.977C66.8499 246.977 72.7859 248.437 71.6198 250.15C69.5053 253.256 68.4742 259.633 71.1994 263.053C72.7546 265.005 70.2944 265.329 68.6688 264.493C66.0826 263.165 66.192 262.671 64.8493 260.474C63.7005 258.594 63.2467 257.858 61.6666 257.055C60.3469 256.384 60.9888 255.08 62.0749 253.755Z" fill="#5E86EC"/>
<path d="M112.442 142.293C112.442 142.293 103.827 184.278 97.5277 202.208C90.912 221.039 72.6419 250.096 71.9399 251.344C69.3427 250.651 67.0266 249.742 65.4829 248.233C65.4829 248.233 74.0589 216.714 82.4218 196.266C85.5949 153.581 92.5914 142.293 92.5914 142.293H112.442Z" fill="#263238"/>
<path opacity="0.2" d="M99.2993 164.754C98.9089 172.875 98.6401 184.043 99.0241 197.637C101.654 189.163 104.515 177.675 106.922 167.365C105.316 165.221 102.819 164.19 99.2993 164.754Z" fill="black"/>
<path d="M99.8182 90.8086C100.723 94.4592 101.605 100.414 100.166 103.584C100.166 103.584 105.555 103.822 112.442 109.322C115.684 104.559 111.932 103.625 111.932 103.625C109.069 102.953 109.21 99.1401 109.213 96.4246L99.8182 90.8086Z" fill="#FFB573"/>
<path d="M98.4621 105.246C95.7741 104.949 97.6333 99.8415 99.0304 100.339C102.561 101.596 110.483 100.197 112.933 101.548C115.383 102.899 114.764 105.672 114.764 105.672C114.764 105.672 101.359 105.566 98.4621 105.246Z" fill="#5E86EC"/>
<path opacity="0.7" d="M98.4621 105.246C95.7741 104.949 97.6333 99.8415 99.0304 100.339C102.561 101.596 110.483 100.197 112.933 101.548C115.383 102.899 114.764 105.672 114.764 105.672C114.764 105.672 101.359 105.566 98.4621 105.246Z" fill="white"/>
<path d="M114.145 84.364C114.231 84.8524 114.56 85.2031 114.879 85.1461C115.199 85.0898 115.388 84.6476 115.301 84.1592C115.215 83.6709 114.886 83.3202 114.566 83.3772C114.246 83.4335 114.058 83.8757 114.145 84.364Z" fill="#263238"/>
<path d="M114.43 83.4287L115.544 82.8828C115.544 82.8828 115.104 83.9062 114.43 83.4287Z" fill="#263238"/>
<path d="M114.797 80.459C114.832 80.3957 114.844 80.3189 114.824 80.244C114.782 80.0885 114.623 79.9957 114.467 80.0373C112.909 80.452 112.475 81.725 112.457 81.78C112.407 81.933 112.49 82.0974 112.643 82.148C112.795 82.1979 112.959 82.1154 113.011 81.963C113.027 81.9131 113.379 80.9307 114.617 80.6011C114.697 80.5794 114.76 80.5262 114.797 80.459Z" fill="#263238"/>
<path d="M114.723 85.5508C114.723 85.5508 115.782 87.5885 116.811 88.5172C116.223 89.193 115.086 89.0311 115.086 89.0311L114.723 85.5508Z" fill="#ED893E"/>
<path d="M97.44 84.1134C98.864 90.05 99.3427 92.5934 102.861 95.147C108.152 98.9883 114.989 95.9566 115.332 89.7179C115.641 84.1025 113.259 75.3371 107.076 73.9694C100.984 72.6222 96.016 78.1767 97.44 84.1134Z" fill="#FFB573"/>
<path d="M108.947 85.2075C112.442 80.5867 114.723 76.8529 112.998 72.7633C111.556 69.3451 107.571 70.3454 107.014 72.0523C96.4127 71.1467 92.6073 74.9867 94.7955 81.3406C96.1894 85.3886 90.775 83.2894 92.0934 88.4312C93.1039 92.3736 89.5385 93.8757 91.3484 96.1425C93.9603 99.4136 99.3465 95.1473 105.498 97.6005C110.53 99.6069 118.092 96.5688 108.947 85.2075Z" fill="#263238"/>
<path d="M108.378 86.1416C109.068 87.229 110.108 87.8344 111.033 87.9695C112.425 88.1724 112.903 86.6133 112.334 85.1663C111.822 83.8639 110.481 82.1884 109.171 82.6536C107.882 83.1112 107.59 84.8981 108.378 86.1416Z" fill="#FFB573"/>
<path d="M110.446 261.477C109.557 261.477 108.1 260.771 107.418 260.156C107.366 260.109 107.346 260.035 107.368 259.967C107.389 259.9 107.448 259.852 107.519 259.844C107.623 259.832 110.104 259.562 110.925 260.243C111.101 260.388 111.198 260.566 111.213 260.773C111.235 261.058 111.121 261.278 110.89 261.391C110.77 261.45 110.619 261.477 110.446 261.477ZM108.01 260.164C108.876 260.769 110.264 261.299 110.732 261.068C110.8 261.034 110.869 260.976 110.855 260.8C110.847 260.693 110.795 260.602 110.696 260.52C110.213 260.12 108.849 260.112 108.01 260.164Z" fill="#263238"/>
<path d="M107.539 260.203C107.482 260.203 107.427 260.176 107.393 260.128C107.351 260.071 107.348 259.995 107.382 259.933C107.435 259.842 108.677 257.679 109.712 257.415C109.933 257.359 110.132 257.386 110.31 257.495C110.554 257.645 110.664 257.868 110.619 258.121C110.477 258.931 108.649 259.973 107.576 260.199C107.563 260.201 107.551 260.203 107.539 260.203ZM109.928 257.747C109.887 257.747 109.846 257.753 109.801 257.764C109.194 257.919 108.384 259.015 107.93 259.725C108.929 259.381 110.174 258.574 110.265 258.058C110.278 257.983 110.271 257.893 110.121 257.801C110.062 257.765 109.998 257.747 109.928 257.747Z" fill="#263238"/>
<path d="M115.201 263.724C110.017 263.323 106.525 259.764 106.891 255.992C107.092 253.913 100.446 253.727 100.446 253.727C101.498 260.175 100.178 261.094 99.7446 262.76C99.3094 264.432 99.4163 266.266 100.792 266.301C102.438 266.342 103.205 266.027 105.251 266.107C107.643 266.2 110.231 266.294 114.483 266.301C116.182 266.304 117.506 263.903 115.201 263.724Z" fill="#5E86EC"/>
<path d="M121.402 142.293C121.402 142.293 120.95 174.089 118.44 194.986C115.929 215.883 107.3 256.868 107.3 256.868C104.807 257.352 102.47 257.43 100.408 256.804C100.408 256.804 97.6813 224.786 102.262 193.848C98.8966 161.423 96.793 142.293 96.793 142.293H121.402Z" fill="#263238"/>
<path d="M122.579 112.876C122.471 115.333 126.35 121.014 121.563 124.306C122.458 126.305 123.213 139.866 121.402 142.291C118.759 144.234 104.454 143.856 92.592 142.291C92.0909 137.388 94.7897 127.232 91.4835 111.395C90.7168 107.723 93.2998 104.197 97.0317 103.82C98.0288 103.72 99.0854 103.636 100.167 103.584C104.372 103.381 107.816 103.247 111.513 103.585C112.738 103.697 114.004 103.852 115.213 104.021C119.577 104.634 122.771 108.474 122.579 112.876Z" fill="#5E86EC"/>
<g opacity="0.3">
<path d="M91.7856 110.541C91.696 110.589 91.607 110.639 91.5168 110.685L91.5149 110.687C91.5149 110.687 91.5136 110.688 91.5123 110.688C91.4323 110.731 91.4022 110.831 91.4457 110.911C91.4893 110.992 91.5891 111.021 91.6691 110.978C91.767 110.925 91.8624 110.869 91.959 110.815C93.2288 111.284 94.6067 112.344 95.3933 112.452C94.1248 111.331 93.2115 110.528 92.2099 110.674C92.512 110.498 92.8077 110.313 93.1001 110.125C94.2675 110.559 95.5315 111.529 96.2541 111.63C95.0777 110.589 94.2323 109.848 93.3024 109.993C93.5225 109.848 93.7408 109.7 93.9558 109.548C94.0781 109.462 94.1984 109.373 94.3193 109.285C95.3715 109.742 96.4877 110.71 97.1488 110.84C96.0921 109.791 95.3427 109.051 94.4454 109.194C94.7257 108.987 95.0009 108.772 95.2729 108.555C96.2393 108.977 97.2633 109.863 97.8701 109.983C96.8979 109.018 96.2086 108.337 95.3837 108.465C95.6166 108.277 95.8483 108.086 96.0761 107.892C96.1312 107.844 96.1856 107.796 96.2406 107.748C97.0931 108.195 97.9385 109.08 98.4941 109.24C97.6889 108.273 97.1277 107.603 96.2803 107.714C96.4992 107.524 96.7161 107.332 96.9299 107.137C97.7139 107.549 98.4909 108.361 99.0016 108.509C98.2617 107.62 97.7459 107.004 96.9689 107.101C97.1961 106.893 97.4201 106.683 97.6416 106.468C98.3264 106.889 98.9805 107.659 99.4342 107.818C98.8185 106.977 98.3859 106.391 97.6889 106.422C97.8099 106.304 97.9302 106.187 98.0493 106.067C98.1177 105.998 98.1856 105.927 98.2541 105.857C98.8851 106.245 99.488 106.954 99.9065 107.101C99.3382 106.325 98.9395 105.784 98.2963 105.814C98.4832 105.622 98.6669 105.427 98.8467 105.229C99.4259 105.538 99.968 106.134 100.355 106.248C99.8451 105.592 99.4886 105.137 98.8729 105.2C98.9062 105.163 98.9408 105.128 98.9734 105.091C99.104 104.944 99.2333 104.795 99.3593 104.644C99.8867 104.932 100.379 105.471 100.732 105.574C100.269 104.978 99.9437 104.563 99.392 104.606C99.5417 104.425 99.6851 104.238 99.8176 104.041C99.8336 104.017 99.8278 103.985 99.8041 103.968C99.7805 103.951 99.7472 103.957 99.7305 103.981L99.7299 103.983C99.6051 104.161 99.4688 104.332 99.3261 104.499C99.3792 104.214 99.2729 103.945 99.0937 103.652C99.0208 103.657 98.9472 103.661 98.8742 103.666C98.9913 103.959 99.1405 104.289 99.2237 104.615C99.1091 104.745 98.9926 104.874 98.8749 105.001C98.8473 105.032 98.8179 105.06 98.7897 105.09C98.912 104.628 98.6713 104.225 98.2976 103.709C98.2579 103.712 98.2195 103.716 98.1798 103.719C98.279 104.114 98.5785 104.657 98.7046 105.179C98.5363 105.356 98.3654 105.53 98.1913 105.702C98.3533 105.113 97.9481 104.592 97.3734 103.857C97.4009 104.297 97.9142 105.064 98.1184 105.773C98.0576 105.833 97.9981 105.893 97.9366 105.952C97.8208 106.063 97.703 106.173 97.5859 106.282C97.7478 105.652 97.3113 105.089 96.6944 104.299C96.7245 104.774 97.2742 105.599 97.4989 106.365C97.296 106.553 97.0905 106.738 96.8825 106.921C97.0169 106.283 96.5926 105.662 96.007 104.809C96.0102 105.316 96.5273 106.216 96.736 107.048C96.5689 107.194 96.4 107.338 96.2297 107.48C96.3795 106.786 95.9181 106.111 95.2813 105.183C95.2851 105.732 95.8451 106.709 96.0723 107.612C96.0275 107.649 95.9833 107.687 95.9379 107.724C95.7049 107.915 95.4681 108.101 95.2307 108.285C95.4182 107.577 94.9773 106.777 94.3718 105.686C94.3245 106.278 94.8518 107.43 95.0221 108.445C94.7545 108.648 94.4838 108.846 94.2093 109.039C94.5177 108.236 94.0205 107.334 93.3229 106.077C93.2704 106.735 93.8726 108.033 94.0416 109.154C93.9616 109.209 93.8822 109.266 93.8016 109.321C93.5488 109.491 93.2928 109.655 93.0349 109.816C93.3901 109.003 92.9613 108.041 92.3334 106.734C92.304 106.78 92.2713 106.824 92.2432 106.871C92.2918 107.641 92.736 108.871 92.8358 109.94C92.5497 110.114 92.2605 110.282 91.9673 110.443C92.3001 109.766 92.112 108.996 91.7011 108.034C91.6064 108.305 91.5341 108.584 91.4771 108.869C91.6077 109.422 91.7382 110.001 91.7856 110.541Z" fill="#263238"/>
<path d="M108.137 106.106C107.171 105.488 106.221 104.356 105.59 104.122C106.467 105.326 107.089 106.175 107.998 106.175C107.688 106.336 107.383 106.504 107.08 106.675C106.192 106.105 105.322 105.068 104.742 104.853C105.548 105.96 106.122 106.743 106.956 106.746C106.696 106.895 106.437 107.047 106.182 107.202C106.12 107.24 106.058 107.279 105.997 107.317C105.226 106.741 104.531 105.734 104.008 105.487C104.65 106.57 105.098 107.32 105.952 107.345C105.706 107.497 105.461 107.653 105.219 107.812C104.51 107.281 103.872 106.356 103.391 106.129C103.98 107.124 104.392 107.813 105.174 107.841C104.917 108.01 104.662 108.183 104.41 108.359C103.8 107.834 103.277 106.971 102.854 106.742C103.329 107.67 103.663 108.318 104.356 108.397C104.218 108.494 104.08 108.59 103.944 108.689C103.866 108.747 103.788 108.807 103.709 108.864C103.147 108.381 102.664 107.585 102.275 107.374C102.712 108.23 103.021 108.828 103.661 108.9C103.446 109.06 103.233 109.223 103.025 109.391C102.502 108.993 102.061 108.319 101.697 108.146C102.097 108.874 102.376 109.379 102.994 109.415C102.956 109.446 102.916 109.475 102.877 109.507C102.725 109.631 102.574 109.758 102.426 109.887C101.951 109.519 101.549 108.909 101.217 108.751C101.58 109.413 101.836 109.875 102.387 109.92C102.211 110.076 102.039 110.237 101.878 110.41C101.858 110.431 101.859 110.465 101.88 110.485C101.901 110.505 101.934 110.504 101.955 110.483L101.956 110.483C102.108 110.326 102.269 110.179 102.436 110.037C102.281 110.471 102.506 110.912 102.817 111.516C102.87 111.164 102.609 110.522 102.556 109.939C102.689 109.828 102.825 109.72 102.961 109.612C102.993 109.587 103.027 109.564 103.059 109.539C102.84 110.032 103.091 110.525 103.444 111.211C103.503 110.823 103.208 110.107 103.158 109.464C103.352 109.316 103.548 109.171 103.747 109.029C103.494 109.585 103.812 110.163 104.262 110.98C104.305 110.541 103.92 109.703 103.83 108.97C103.9 108.921 103.968 108.871 104.038 108.822C104.17 108.731 104.303 108.641 104.436 108.552C104.177 109.149 104.518 109.774 105.003 110.651C105.048 110.178 104.636 109.276 104.536 108.485C104.766 108.331 104.998 108.181 105.232 108.033C104.998 108.641 105.319 109.322 105.762 110.257C105.839 109.757 105.471 108.786 105.397 107.931C105.585 107.814 105.775 107.699 105.965 107.585C105.708 108.247 106.056 108.986 106.538 110.003C106.621 109.461 106.223 108.408 106.142 107.48C106.193 107.45 106.242 107.42 106.292 107.391C106.553 107.24 106.816 107.093 107.08 106.949C106.783 107.617 107.091 108.479 107.516 109.651C107.656 109.075 107.318 107.854 107.311 106.824C107.608 106.666 107.907 106.513 108.208 106.366C107.776 107.11 108.124 108.079 108.614 109.43C108.77 108.789 108.381 107.413 108.392 106.279C108.479 106.237 108.567 106.193 108.655 106.152C108.932 106.024 109.211 105.903 109.491 105.784C108.989 106.565 109.306 107.637 109.75 109.126C109.96 108.44 109.626 106.925 109.706 105.694C110.016 105.567 110.329 105.447 110.644 105.335C110.04 106.186 110.388 107.367 110.882 109.023C111.111 108.273 110.742 106.609 110.837 105.268C110.933 105.235 111.028 105.2 111.125 105.169L111.128 105.168L111.13 105.167C111.216 105.137 111.261 105.043 111.231 104.956C111.201 104.87 111.107 104.825 111.021 104.855C110.916 104.892 110.813 104.932 110.71 104.97C109.969 104.554 109.224 103.9 108.583 103.414C108.413 103.409 108.242 103.406 108.071 103.402C108.905 104.39 109.589 105.058 110.439 105.07C110.113 105.196 109.791 105.331 109.473 105.471C108.389 104.858 107.295 103.699 106.597 103.486C107.594 104.7 108.311 105.566 109.252 105.569C109.012 105.678 108.772 105.79 108.536 105.905C108.403 105.969 108.27 106.038 108.137 106.106Z" fill="#263238"/>
<path d="M100.142 118.07C99.4361 117.303 98.9414 116.768 98.2521 116.877C98.359 116.747 98.4659 116.617 98.5708 116.485C98.6316 116.408 98.6905 116.331 98.7507 116.254C99.4214 116.569 100.099 117.206 100.531 117.305C99.8803 116.598 99.4233 116.105 98.7871 116.206C98.9516 115.995 99.1123 115.78 99.2691 115.563C99.8796 115.806 100.484 116.338 100.882 116.407C100.302 115.812 99.8969 115.401 99.2921 115.531C99.3209 115.491 99.351 115.452 99.3798 115.412C99.4931 115.251 99.6051 115.089 99.7132 114.925C100.269 115.152 100.819 115.632 101.181 115.695C100.655 115.155 100.285 114.778 99.7414 114.882C99.87 114.685 99.9923 114.484 100.101 114.273C100.115 114.248 100.105 114.216 100.079 114.203C100.054 114.189 100.022 114.198 100.008 114.224L100.007 114.225C99.9027 114.416 99.7862 114.601 99.6633 114.784C99.6972 114.324 99.3619 113.959 98.9011 113.461C98.944 113.814 99.3676 114.362 99.575 114.911C99.4758 115.053 99.374 115.193 99.2716 115.334C99.2473 115.366 99.2217 115.398 99.1974 115.431C99.2768 114.896 98.903 114.489 98.3782 113.922C98.4256 114.312 98.9017 114.923 99.1219 115.529C98.9747 115.724 98.8243 115.916 98.67 116.105C98.7654 115.503 98.3046 115.03 97.6518 114.363C97.7286 114.797 98.3238 115.502 98.6054 116.185C98.5516 116.251 98.4992 116.317 98.4448 116.383C98.3424 116.506 98.2374 116.628 98.1331 116.75C98.2239 116.105 97.7273 115.595 97.0259 114.879C97.1084 115.347 97.7471 116.105 98.055 116.841C97.8739 117.051 97.6908 117.258 97.5046 117.463C97.5667 116.814 97.0764 116.244 96.3993 115.462C96.4588 115.965 97.0726 116.802 97.3734 117.606C97.2236 117.769 97.0719 117.931 96.9183 118.091C96.9894 117.385 96.4563 116.765 95.7196 115.915C95.7849 116.46 96.4505 117.368 96.7763 118.24C96.7359 118.282 96.6963 118.325 96.6553 118.367C96.4448 118.582 96.231 118.793 96.0147 119.003C96.1222 118.279 95.5942 117.533 94.8716 116.517C94.8908 117.11 95.5424 118.196 95.8252 119.185C95.582 119.417 95.335 119.644 95.0841 119.866C95.3011 119.034 94.7065 118.192 93.8732 117.022C93.8944 117.682 94.638 118.904 94.9305 120C94.8569 120.064 94.7846 120.129 94.7104 120.192C94.4787 120.39 94.2425 120.581 94.0038 120.77C94.2777 119.885 93.6857 118.935 92.8595 117.62C92.8409 118.336 93.568 119.707 93.8195 120.914C93.5545 121.12 93.2857 121.319 93.0124 121.512C93.2134 120.953 93.0835 120.372 92.7705 119.709C92.8473 120.473 92.9062 121.214 92.958 121.943C92.9875 121.922 93.0169 121.901 93.0463 121.88C94.3603 122.204 95.8483 123.103 96.6419 123.124C95.2563 122.151 94.2592 121.455 93.2806 121.711C93.5609 121.503 93.8348 121.287 94.1043 121.066C95.3126 121.368 96.6771 122.191 97.406 122.21C96.1209 121.308 95.198 120.664 94.2905 120.914C94.4927 120.744 94.6931 120.573 94.8902 120.399C95.0022 120.299 95.1116 120.198 95.2217 120.096C96.318 120.433 97.5353 121.27 98.2067 121.327C97.0393 120.402 96.2124 119.75 95.3363 119.992C95.5916 119.755 95.8412 119.512 96.0876 119.264C97.095 119.577 98.2118 120.343 98.8281 120.395C97.7548 119.544 96.9932 118.944 96.1881 119.164C96.3987 118.951 96.6079 118.736 96.8121 118.517C96.862 118.464 96.91 118.41 96.96 118.356C97.8572 118.705 98.7955 119.49 99.3657 119.588C98.4576 118.716 97.8252 118.113 96.9958 118.317C97.1923 118.104 97.3862 117.889 97.5769 117.672C98.4019 117.993 99.2646 118.714 99.7887 118.804C98.9548 118.003 98.3731 117.449 97.6121 117.632C97.8143 117.4 98.014 117.165 98.2099 116.928C98.9376 117.27 99.6729 117.962 100.142 118.07Z" fill="#263238"/>
<path d="M111.284 117.604C110.821 117.808 110.2 118.64 109.519 119.162C109.318 119.066 109.119 118.968 108.922 118.869C109.618 118.731 110.054 118.039 110.653 117.086C110.151 117.307 109.477 118.209 108.738 118.776C108.686 118.749 108.634 118.724 108.582 118.697C108.314 118.559 108.049 118.416 107.786 118.27C108.509 118.162 109.07 117.438 109.83 116.451C109.268 116.642 108.42 117.583 107.556 118.143C107.263 117.977 106.974 117.808 106.688 117.632C107.547 117.597 108.178 116.782 109.054 115.644C108.429 115.857 107.477 116.925 106.515 117.525C106.433 117.473 106.349 117.423 106.267 117.37C106.011 117.206 105.759 117.036 105.508 116.863C106.435 116.867 107.17 116.023 108.187 114.849C107.496 115.04 106.397 116.137 105.316 116.729C105.042 116.536 104.773 116.337 104.509 116.132C105.551 116.183 106.36 115.255 107.491 113.949C106.735 114.159 105.531 115.365 104.349 116.004C104.269 115.941 104.188 115.879 104.11 115.815L104.108 115.814L104.106 115.812C104.035 115.755 103.931 115.767 103.875 115.839C103.818 115.91 103.83 116.014 103.902 116.071C103.989 116.139 104.079 116.205 104.166 116.272C104.24 117.623 103.814 119.309 104.027 120.074C104.552 118.464 104.927 117.307 104.396 116.446C104.677 116.653 104.964 116.852 105.254 117.045C105.318 118.288 104.929 119.834 105.124 120.537C105.612 119.044 105.958 117.974 105.455 117.178C105.675 117.322 105.898 117.463 106.123 117.601C106.25 117.679 106.379 117.754 106.509 117.83C106.507 118.977 106.063 120.386 106.205 121.044C106.749 119.658 107.131 118.676 106.642 117.91C106.944 118.084 107.25 118.252 107.558 118.416C107.553 119.47 107.147 120.762 107.277 121.367C107.777 120.092 108.129 119.188 107.683 118.482C107.949 118.622 108.216 118.759 108.484 118.891C108.55 118.923 108.616 118.953 108.681 118.985C108.609 119.944 108.133 121.071 108.206 121.645C108.774 120.522 109.166 119.741 108.728 119.007C108.989 119.133 109.252 119.255 109.516 119.374C109.449 120.258 109.012 121.293 109.079 121.821C109.601 120.789 109.962 120.071 109.564 119.396C109.845 119.522 110.127 119.645 110.411 119.762C110.297 120.558 109.851 121.464 109.884 121.944C110.411 121.045 110.778 120.415 110.473 119.788C110.628 119.852 110.785 119.916 110.941 119.978C111.032 120.014 111.123 120.047 111.215 120.082C111.109 120.816 110.698 121.65 110.729 122.093C111.215 121.263 111.554 120.682 111.27 120.103C111.521 120.199 111.773 120.29 112.026 120.377C111.972 121.031 111.64 121.766 111.69 122.166C112.089 121.437 112.365 120.93 112.063 120.39C112.109 120.406 112.155 120.423 112.203 120.438C112.39 120.5 112.577 120.559 112.766 120.615C112.711 121.213 112.412 121.879 112.458 122.244C112.82 121.582 113.073 121.119 112.815 120.63C113.041 120.695 113.268 120.753 113.502 120.796C113.53 120.801 113.558 120.783 113.563 120.755C113.569 120.726 113.551 120.699 113.522 120.692L113.521 120.692C113.308 120.648 113.096 120.591 112.886 120.526C113.336 120.423 113.587 119.997 113.929 119.41C113.604 119.554 113.204 120.119 112.739 120.478C112.574 120.425 112.41 120.368 112.246 120.311C112.208 120.297 112.17 120.282 112.131 120.269C112.666 120.189 112.946 119.712 113.334 119.044C112.975 119.204 112.531 119.837 112.014 120.225C111.785 120.141 111.557 120.053 111.331 119.961C111.935 119.876 112.253 119.298 112.699 118.479C112.306 118.679 111.807 119.454 111.236 119.923C111.158 119.891 111.079 119.86 111 119.828C110.852 119.766 110.705 119.702 110.558 119.637C111.201 119.535 111.544 118.911 112.024 118.032C111.6 118.247 111.062 119.079 110.447 119.59C110.194 119.478 109.942 119.363 109.692 119.245C110.332 119.116 110.734 118.48 111.284 117.604Z" fill="#263238"/>
<path d="M107.588 126.139C108.158 126.331 108.737 126.775 109.102 126.816C108.543 126.31 108.15 125.957 107.613 126.096C107.729 125.891 107.838 125.682 107.934 125.465C107.946 125.439 107.934 125.408 107.908 125.396C107.882 125.384 107.85 125.395 107.837 125.422L107.837 125.424C107.745 125.621 107.64 125.813 107.529 126.003C107.533 125.541 107.176 125.199 106.684 124.73C106.749 125.08 107.207 125.6 107.448 126.135C107.358 126.282 107.266 126.43 107.172 126.576C107.15 126.61 107.126 126.643 107.104 126.677C107.149 126.139 106.751 125.756 106.191 125.224C106.263 125.61 106.777 126.19 107.035 126.781C106.9 126.984 106.762 127.186 106.621 127.385C106.678 126.777 106.188 126.334 105.494 125.711C105.598 126.139 106.237 126.805 106.561 127.468C106.512 127.538 106.463 127.607 106.413 127.676C106.319 127.806 106.222 127.934 106.125 128.062C106.175 127.413 105.647 126.935 104.902 126.265C105.014 126.727 105.7 127.443 106.054 128.158C105.887 128.379 105.716 128.597 105.544 128.813C105.565 128.162 105.039 127.624 104.314 126.886C104.406 127.383 105.071 128.18 105.421 128.963C105.282 129.136 105.141 129.307 104.998 129.477C105.025 128.768 104.453 128.183 103.664 127.38C103.763 127.92 104.485 128.784 104.865 129.634C104.828 129.678 104.79 129.724 104.753 129.768C104.556 129.996 104.356 130.221 104.154 130.443C104.215 129.714 103.641 129.002 102.856 128.034C102.912 128.624 103.631 129.667 103.976 130.637C103.748 130.884 103.516 131.126 103.279 131.364C103.443 130.52 102.796 129.718 101.891 128.602C101.954 129.26 102.773 130.433 103.135 131.507C103.066 131.576 102.997 131.645 102.927 131.713C102.708 131.925 102.484 132.131 102.259 132.335C102.476 131.434 101.825 130.524 100.918 129.263C100.945 129.98 101.757 131.302 102.084 132.491C101.833 132.713 101.577 132.929 101.316 133.138C101.606 132.137 100.892 131.135 99.8816 129.732C99.911 130.516 100.806 131.966 101.155 133.265C101.075 133.328 100.996 133.392 100.916 133.453L100.914 133.454L100.912 133.456C100.84 133.513 100.829 133.617 100.885 133.688C100.941 133.759 101.045 133.771 101.117 133.715C101.204 133.646 101.288 133.574 101.374 133.504C102.706 133.744 104.248 134.548 105.041 134.518C103.597 133.635 102.557 133.003 101.597 133.321C101.864 133.095 102.123 132.862 102.378 132.624C103.603 132.848 105.017 133.584 105.746 133.557C104.406 132.738 103.444 132.154 102.555 132.46C102.746 132.278 102.935 132.095 103.121 131.907C103.226 131.802 103.329 131.693 103.433 131.586C104.548 131.852 105.816 132.61 106.49 132.624C105.267 131.775 104.399 131.176 103.541 131.474C103.781 131.221 104.015 130.962 104.245 130.7C105.27 130.949 106.433 131.642 107.052 131.655C105.926 130.874 105.128 130.323 104.339 130.594C104.536 130.368 104.731 130.139 104.922 129.909C104.968 129.852 105.013 129.795 105.059 129.739C105.976 130.03 106.962 130.754 107.537 130.816C106.576 130.003 105.907 129.442 105.091 129.698C105.274 129.473 105.453 129.246 105.63 129.017C106.474 129.286 107.38 129.95 107.909 130.007C107.026 129.26 106.411 128.745 105.663 128.975C105.85 128.731 106.035 128.484 106.215 128.235C106.963 128.53 107.741 129.174 108.216 129.252C107.463 128.531 106.935 128.029 106.254 128.181C106.353 128.044 106.451 127.907 106.547 127.769C106.603 127.689 106.657 127.607 106.712 127.527C107.402 127.799 108.118 128.393 108.556 128.464C107.862 127.799 107.375 127.336 106.746 127.477C106.897 127.256 107.044 127.032 107.187 126.805C107.811 127.01 108.449 127.502 108.849 127.546C108.233 126.988 107.803 126.603 107.207 126.773C107.233 126.73 107.261 126.69 107.287 126.648C107.389 126.478 107.491 126.31 107.588 126.139Z" fill="#263238"/>
<path d="M111.472 133.283C111.603 133.11 111.746 132.943 111.894 132.781C111.793 133.231 112.071 133.642 112.454 134.202C112.463 133.847 112.125 133.242 112.001 132.669C112.12 132.543 112.241 132.418 112.363 132.296C112.392 132.267 112.422 132.24 112.451 132.211C112.293 132.728 112.603 133.186 113.039 133.824C113.05 133.431 112.668 132.757 112.54 132.125C112.715 131.954 112.892 131.786 113.072 131.621C112.889 132.203 113.276 132.739 113.823 133.494C113.811 133.053 113.326 132.269 113.148 131.552C113.21 131.495 113.272 131.437 113.336 131.38C113.455 131.273 113.577 131.167 113.698 131.062C113.514 131.686 113.93 132.264 114.518 133.075C114.505 132.6 113.985 131.756 113.788 130.983C113.998 130.802 114.21 130.625 114.424 130.449C114.267 131.082 114.668 131.718 115.222 132.591C115.237 132.085 114.753 131.167 114.575 130.328C114.748 130.188 114.921 130.05 115.096 129.914C114.922 130.602 115.359 131.293 115.962 132.244C115.978 131.695 115.453 130.699 115.259 129.788C115.305 129.752 115.35 129.716 115.397 129.681C115.637 129.499 115.88 129.322 116.124 129.146C115.911 129.846 116.323 130.662 116.889 131.773C116.957 131.185 116.472 130.014 116.339 128.993C116.613 128.8 116.891 128.612 117.172 128.429C116.835 129.219 117.3 130.139 117.951 131.42C118.028 130.765 117.472 129.446 117.344 128.319C117.426 128.266 117.507 128.212 117.59 128.161C117.848 128 118.11 127.845 118.374 127.693C117.972 128.529 118.418 129.554 119.042 130.978C119.165 130.271 118.648 128.809 118.577 127.578C118.869 127.413 119.165 127.256 119.464 127.106C118.97 128.025 119.459 129.154 120.152 130.737C120.288 129.965 119.717 128.358 119.647 127.016C119.739 126.972 119.829 126.925 119.921 126.882L119.923 126.881L119.926 126.88C120.008 126.84 120.041 126.741 120.001 126.659C119.96 126.578 119.862 126.544 119.78 126.584C119.68 126.634 119.583 126.686 119.484 126.737C118.232 126.222 116.893 125.114 116.111 124.977C117.338 126.143 118.222 126.978 119.228 126.869C118.92 127.034 118.617 127.207 118.318 127.386C117.167 126.91 115.939 125.894 115.22 125.769C116.359 126.851 117.177 127.623 118.111 127.51C117.886 127.647 117.663 127.787 117.443 127.931C117.317 128.013 117.194 128.097 117.07 128.181C116.035 127.687 114.954 126.68 114.299 126.525C115.317 127.612 116.04 128.379 116.941 128.268C116.654 128.465 116.371 128.669 116.092 128.877C115.141 128.42 114.15 127.498 113.548 127.356C114.484 128.355 115.149 129.061 115.978 128.962C115.738 129.142 115.5 129.324 115.265 129.51C115.208 129.555 115.152 129.602 115.095 129.647C114.259 129.17 113.446 128.255 112.897 128.075C113.667 129.071 114.204 129.76 115.054 129.68C114.828 129.862 114.605 130.046 114.384 130.234C113.615 129.793 112.869 128.954 112.363 128.788C113.07 129.703 113.564 130.337 114.344 130.268C114.109 130.468 113.878 130.67 113.649 130.875C112.98 130.431 112.354 129.638 111.907 129.462C112.492 130.325 112.903 130.927 113.601 130.921C113.476 131.034 113.351 131.147 113.228 131.262C113.156 131.329 113.086 131.397 113.016 131.464C112.399 131.054 111.822 130.324 111.409 130.161C111.949 130.957 112.328 131.512 112.972 131.505C112.778 131.69 112.588 131.878 112.401 132.07C111.833 131.74 111.313 131.125 110.93 130.998C111.416 131.672 111.756 132.138 112.374 132.098C112.339 132.134 112.303 132.168 112.269 132.203C112.134 132.346 111.999 132.49 111.868 132.636C111.352 132.329 110.879 131.773 110.529 131.658C110.97 132.269 111.281 132.696 111.834 132.673C111.677 132.849 111.527 133.03 111.388 133.222C111.372 133.246 111.376 133.278 111.399 133.295C111.422 133.313 111.455 133.308 111.473 133.285L111.472 133.283Z" fill="#263238"/>
<path d="M103.969 142.398C104.224 142.161 104.474 141.918 104.72 141.671C105.727 141.983 106.844 142.75 107.461 142.801C106.387 141.95 105.626 141.35 104.821 141.57C105.031 141.357 105.24 141.142 105.445 140.923C105.495 140.87 105.543 140.816 105.593 140.763C106.49 141.111 107.429 141.896 107.999 141.994C107.091 141.122 106.458 140.519 105.629 140.724C105.825 140.511 106.019 140.295 106.21 140.078C107.036 140.4 107.898 141.12 108.422 141.211C107.588 140.41 107.006 139.855 106.245 140.038C106.447 139.806 106.647 139.572 106.843 139.335C107.571 139.676 108.307 140.368 108.775 140.476C108.069 139.71 107.574 139.175 106.885 139.284C106.992 139.153 107.099 139.023 107.204 138.891C107.265 138.814 107.324 138.737 107.384 138.66C108.054 138.975 108.732 139.612 109.164 139.712C108.513 139.004 108.056 138.511 107.42 138.613C107.585 138.402 107.745 138.187 107.902 137.97C108.513 138.213 109.117 138.745 109.515 138.814C108.935 138.219 108.53 137.807 107.925 137.938C107.954 137.897 107.984 137.858 108.013 137.818C108.126 137.657 108.238 137.495 108.346 137.331C108.902 137.558 109.452 138.039 109.814 138.102C109.288 137.562 108.918 137.185 108.374 137.289C108.503 137.092 108.625 136.891 108.734 136.68C108.748 136.654 108.738 136.623 108.712 136.609C108.687 136.596 108.655 136.604 108.641 136.63L108.64 136.631C108.536 136.823 108.419 137.008 108.296 137.19C108.33 136.73 107.995 136.365 107.534 135.867C107.577 136.22 108.001 136.768 108.208 137.317C108.109 137.459 108.007 137.6 107.905 137.74C107.88 137.772 107.855 137.804 107.83 137.837C107.91 137.303 107.536 136.895 107.011 136.329C107.059 136.719 107.535 137.33 107.755 137.936C107.608 138.13 107.457 138.322 107.303 138.512C107.398 137.909 106.938 137.436 106.285 136.77C106.362 137.204 106.957 137.909 107.238 138.591C107.185 138.657 107.132 138.723 107.078 138.789C106.975 138.912 106.87 139.035 106.766 139.156C106.857 138.512 106.36 138.001 105.659 137.285C105.741 137.753 106.38 138.511 106.689 139.248C106.508 139.457 106.325 139.664 106.138 139.869C106.201 139.22 105.71 138.651 105.033 137.868C105.093 138.371 105.707 139.208 106.007 140.012C105.857 140.175 105.706 140.337 105.552 140.498C105.623 139.791 105.09 139.172 104.353 138.321C104.419 138.866 105.084 139.774 105.41 140.647C105.37 140.688 105.33 140.731 105.289 140.773C105.078 140.988 104.865 141.2 104.648 141.409C104.756 140.685 104.228 139.938 103.505 138.923C103.525 139.515 104.177 140.601 104.459 141.591C104.216 141.823 103.969 142.05 103.717 142.272C103.934 141.44 103.34 140.599 102.506 139.429C102.527 140.089 103.27 141.311 103.564 142.407C103.49 142.471 103.418 142.536 103.343 142.599C103.112 142.796 102.875 142.988 102.637 143.177C102.911 142.292 102.319 141.342 101.493 140.027C101.475 140.735 102.182 142.081 102.442 143.278C102.606 143.289 102.771 143.301 102.934 143.312C103.133 143.145 103.33 142.978 103.524 142.805C103.636 142.706 103.745 142.604 103.855 142.503C104.609 142.734 105.416 143.198 106.067 143.486C106.23 143.493 106.391 143.5 106.553 143.507C105.533 142.707 104.77 142.176 103.969 142.398Z" fill="#263238"/>
<path d="M100.428 140.43C100.412 141.049 100.907 142.119 101.247 143.191C101.409 143.203 101.571 143.217 101.732 143.228C101.679 142.435 101.136 141.557 100.428 140.43Z" fill="#263238"/>
<path d="M102.967 143.313C103.29 143.334 103.612 143.354 103.933 143.373C103.599 143.264 103.282 143.236 102.967 143.313Z" fill="#263238"/>
<path d="M121.593 141.973C121.611 141.936 121.629 141.895 121.647 141.856C121.569 141.829 121.49 141.803 121.412 141.776C121.373 141.762 121.335 141.747 121.297 141.733C121.487 141.705 121.644 141.624 121.787 141.504C121.845 141.337 121.9 141.159 121.951 140.962C121.716 141.202 121.459 141.481 121.18 141.691C120.951 141.607 120.723 141.518 120.497 141.427C121.101 141.342 121.419 140.763 121.866 139.945C121.473 140.145 120.973 140.919 120.402 141.389C120.324 141.357 120.245 141.326 120.166 141.293C120.018 141.231 119.871 141.167 119.724 141.102C120.367 141.001 120.71 140.377 121.19 139.497C120.766 139.713 120.228 140.546 119.613 141.055C119.36 140.944 119.108 140.828 118.858 140.71C119.497 140.58 119.898 139.944 120.449 139.068C119.986 139.273 119.364 140.104 118.683 140.626C118.483 140.53 118.284 140.433 118.086 140.333C118.783 140.195 119.219 139.504 119.818 138.55C119.316 138.772 118.642 139.673 117.903 140.24C117.851 140.213 117.798 140.188 117.746 140.162C117.479 140.023 117.214 139.881 116.951 139.735C117.674 139.626 118.235 138.903 118.994 137.915C118.433 138.107 117.585 139.048 116.721 139.607C116.429 139.443 116.139 139.273 115.853 139.097C116.712 139.061 117.343 138.247 118.219 137.108C117.595 137.321 116.643 138.389 115.681 138.989C115.598 138.937 115.514 138.887 115.433 138.835C115.176 138.671 114.924 138.501 114.674 138.328C115.601 138.332 116.335 137.488 117.352 136.314C116.661 136.506 115.563 137.602 114.481 138.194C114.207 138.001 113.938 137.803 113.674 137.596C114.716 137.648 115.525 136.72 116.657 135.414C115.901 135.624 114.696 136.83 113.514 137.47C113.434 137.406 113.354 137.345 113.275 137.28L113.273 137.278L113.271 137.277C113.199 137.221 113.096 137.233 113.039 137.305C112.983 137.376 112.995 137.479 113.067 137.536C113.154 137.605 113.243 137.67 113.331 137.737C113.405 139.089 112.979 140.775 113.192 141.54C113.718 139.93 114.092 138.773 113.561 137.912C113.842 138.119 114.129 138.318 114.419 138.511C114.483 139.755 114.094 141.3 114.289 142.003C114.777 140.51 115.122 139.44 114.619 138.644C114.84 138.788 115.063 138.93 115.288 139.067C115.415 139.145 115.544 139.22 115.674 139.296C115.672 140.443 115.227 141.852 115.37 142.51C115.914 141.124 116.296 140.142 115.807 139.376C116.109 139.55 116.415 139.719 116.722 139.881C116.718 140.936 116.312 142.228 116.442 142.832C116.942 141.557 117.293 140.654 116.848 139.948C117.114 140.087 117.38 140.224 117.649 140.356C117.714 140.388 117.78 140.419 117.846 140.451C117.774 141.411 117.298 142.537 117.371 143.111C117.939 141.988 118.331 141.207 117.893 140.473C118.154 140.599 118.417 140.722 118.681 140.841C118.616 141.697 118.207 142.692 118.243 143.234C118.253 143.232 118.263 143.23 118.273 143.229C118.779 142.229 119.119 141.524 118.73 140.863C119.01 140.989 119.293 141.111 119.577 141.229C119.484 141.876 119.176 142.59 119.08 143.095C119.137 143.084 119.197 143.074 119.252 143.062C119.663 142.343 119.903 141.797 119.639 141.254C119.794 141.318 119.95 141.383 120.107 141.444C120.198 141.48 120.289 141.513 120.381 141.548C120.317 141.993 120.142 142.473 120.02 142.882C120.122 142.854 120.222 142.826 120.316 142.796C120.536 142.34 120.625 141.954 120.437 141.57C120.687 141.666 120.939 141.757 121.193 141.844C121.175 142.058 121.126 142.279 121.071 142.495C121.176 142.442 121.269 142.386 121.353 142.327C121.352 142.169 121.318 142.014 121.229 141.856C121.276 141.872 121.322 141.889 121.37 141.904C121.442 141.927 121.518 141.95 121.593 141.973Z" fill="#263238"/>
<path d="M96.9663 128.614L96.9689 128.613L96.9714 128.612C97.0591 128.588 97.1103 128.497 97.086 128.409C97.0617 128.322 96.9708 128.271 96.8831 128.295C96.7762 128.324 96.6706 128.358 96.5644 128.39C95.4303 127.651 94.3218 126.312 93.5788 126.031C94.567 127.406 95.2793 128.392 96.2879 128.472C95.9545 128.576 95.6249 128.69 95.2978 128.81C94.5279 128.306 93.7727 127.506 93.1545 127.018C93.1551 127.167 93.1526 127.307 93.1526 127.455C93.7894 128.29 94.3481 128.845 95.0713 128.893C94.8249 128.987 94.5791 129.082 94.3353 129.183C94.197 129.24 94.0601 129.299 93.9225 129.359C93.6575 129.164 93.3983 128.927 93.1468 128.682C93.1443 128.861 93.1417 129.039 93.1385 129.215C93.3363 129.332 93.5468 129.404 93.7798 129.419C93.559 129.516 93.342 129.62 93.1238 129.723C93.1212 129.814 93.1186 129.903 93.1161 129.993C93.4009 129.865 93.6876 129.74 93.9769 129.622C93.4982 130.336 93.783 131.327 94.1842 132.706C94.3814 132.076 94.0818 130.676 94.1663 129.546C94.2566 129.51 94.3468 129.472 94.4377 129.437C94.7219 129.327 95.0079 129.224 95.2953 129.124C94.7449 129.869 94.9919 130.961 95.3388 132.475C95.5922 131.805 95.3567 130.271 95.5167 129.048C95.8342 128.941 96.1535 128.841 96.4754 128.751C95.8182 129.561 96.0889 130.761 96.4748 132.446C96.7519 131.713 96.4902 130.028 96.6726 128.696C96.7705 128.667 96.8678 128.639 96.9663 128.614Z" fill="#263238"/>
<path d="M93.0093 132.628C93.031 132.704 93.0522 132.777 93.0746 132.855C93.1872 132.495 93.1238 131.861 93.0778 131.184C93.0579 131.677 93.0349 132.16 93.0093 132.628Z" fill="#263238"/>
<path d="M95.2774 141.991C95.1993 141.863 95.118 141.737 95.0374 141.612C95.5577 140.59 96.5919 139.535 96.7635 138.884C95.6511 139.874 94.8659 140.576 94.9542 141.481C94.7641 141.188 94.5676 140.9 94.3673 140.615C94.8486 139.677 95.7958 138.709 95.9532 138.111C94.9305 139.022 94.2079 139.668 94.2854 140.499C94.1119 140.254 93.9359 140.012 93.7555 139.773C93.7119 139.714 93.6665 139.657 93.623 139.599C94.1209 138.775 95.0559 137.986 95.2505 137.442C94.2355 138.186 93.5327 138.705 93.591 139.558C93.415 139.328 93.2364 139.099 93.0547 138.874C93.5142 138.116 94.3724 137.392 94.5516 136.891C93.6185 137.574 92.9727 138.052 93.0214 138.833C92.8921 138.672 92.759 138.515 92.6265 138.358C92.6207 138.446 92.615 138.537 92.6099 138.624C92.6854 138.719 92.7628 138.813 92.8371 138.909C92.7564 138.887 92.6758 138.875 92.5939 138.87C92.5887 138.966 92.5849 139.057 92.5798 139.15C92.7059 139.117 92.8313 139.086 92.9548 139.063C93.0899 139.239 93.223 139.417 93.3548 139.595C93.0969 139.523 92.8371 139.538 92.5606 139.614C92.5548 139.747 92.5478 139.884 92.5439 140.013C92.8518 139.913 93.1686 139.819 93.4764 139.761C93.5103 139.808 93.5455 139.854 93.5801 139.902C93.7561 140.146 93.9276 140.394 94.0966 140.642C93.6473 140.493 93.1404 140.606 92.535 140.849C92.535 140.967 92.5318 141.092 92.5337 141.206C93.0687 141.083 93.6787 140.92 94.2438 140.861C94.43 141.14 94.6111 141.422 94.7871 141.708C94.1766 141.429 93.4726 141.639 92.5772 142.038C92.5836 142.121 92.5843 142.214 92.5926 142.294C92.6412 142.301 92.6899 142.306 92.7385 142.313C93.3907 142.174 94.1811 141.945 94.8927 141.882C94.9433 141.965 94.9945 142.048 95.0438 142.132C95.1398 142.295 95.2307 142.462 95.3228 142.627C95.4425 142.64 95.5615 142.654 95.6812 142.667C95.5494 142.44 95.4156 142.214 95.2774 141.991Z" fill="#263238"/>
<path d="M92.7763 136.182C92.7686 136.286 92.7622 136.379 92.7545 136.482C92.9593 136.268 93.1308 136.072 93.2025 135.902C93.0502 136.001 92.9094 136.092 92.7763 136.182Z" fill="#263238"/>
<path d="M96.5388 142.761C96.7283 142.781 96.9177 142.802 97.1078 142.821C97.6191 142.009 98.1606 141.253 98.2649 140.734C97.4931 141.506 96.8671 142.139 96.5388 142.761Z" fill="#263238"/>
<path d="M95.8931 142.691C96.4224 141.61 97.36 140.5 97.4963 139.824C96.3866 140.934 95.5942 141.731 95.6819 142.668C95.7523 142.675 95.8227 142.684 95.8931 142.691Z" fill="#263238"/>
<path d="M92.6937 137.328C92.6816 137.499 92.6707 137.669 92.6592 137.834C93.1219 137.29 93.7299 136.795 93.8886 136.418C93.376 136.746 92.9587 137.02 92.6937 137.328Z" fill="#263238"/>
</g>
<path d="M137.148 121.68L139.977 118.68L143.895 124.197C143.895 124.197 140.588 126.545 137.418 126.451L137.055 125.64C136.464 124.323 136.498 122.866 137.148 121.68Z" fill="#FFB573"/>
<path d="M144.511 118.967L145.618 121.053C146.122 122.003 145.766 123.182 144.82 123.695L143.895 124.196L139.977 118.679L142.218 118.009C143.113 117.74 144.073 118.142 144.511 118.967Z" fill="#FFB573"/>
<path d="M122.197 110.904L122.435 112.129L122.704 113.422C122.897 114.285 123.085 115.151 123.302 116.006C123.72 117.722 124.214 119.403 124.751 121.028C125.308 122.642 125.932 124.198 126.649 125.577C127.371 126.943 128.203 128.135 128.995 128.844L127.634 128.174C127.235 128.119 127.164 128.241 127.37 128.234C127.566 128.234 127.939 128.132 128.34 127.956C129.158 127.597 130.129 127.026 131.066 126.361C132.021 125.706 132.977 124.962 133.936 124.192C134.89 123.432 135.865 122.592 136.794 121.831L136.893 121.75C137.855 120.962 139.274 121.103 140.063 122.066C140.648 122.78 140.719 123.749 140.324 124.522C139.668 125.799 138.964 126.924 138.179 128.072C137.394 129.207 136.536 130.305 135.571 131.377C134.584 132.432 133.532 133.486 132.122 134.437C131.408 134.91 130.611 135.374 129.566 135.741C129.043 135.924 128.449 136.073 127.763 136.136C127.081 136.2 126.296 136.172 125.483 135.972C125.036 135.861 124.629 135.669 124.277 135.415L124.122 135.301C121.896 133.688 120.435 131.764 119.252 129.867C118.667 128.913 118.145 127.952 117.674 126.99C117.217 126.023 116.802 125.054 116.419 124.084C115.66 122.146 115.057 120.191 114.543 118.231C114.293 117.249 114.054 116.267 113.857 115.274C113.757 114.778 113.66 114.28 113.573 113.778C113.487 113.26 113.413 112.798 113.331 112.199C112.993 109.748 114.707 107.489 117.157 107.152C119.521 106.827 121.707 108.409 122.161 110.721L122.197 110.904Z" fill="#FFB573"/>
<path d="M116.06 104.186C119.78 104.571 122.76 107.04 124.84 114.906C123.24 117.12 113.16 121.978 113.16 121.978C113.16 121.978 107.547 103.306 116.06 104.186Z" fill="#263238"/>
</g>
<defs>
<filter id="filter0_d_2954_1538" x="0" y="-6" width="352" height="352" filterUnits="userSpaceOnUse" color-interpolation-filters="sRGB">
<feFlood flood-opacity="0" result="BackgroundImageFix"/>
<feColorMatrix in="SourceAlpha" type="matrix" values="0 0 0 0 0 0 0 0 0 0 0 0 0 0 0 0 0 0 127 0" result="hardAlpha"/>
<feOffset dx="12" dy="10"/>
<feGaussianBlur stdDeviation="8"/>
<feComposite in2="hardAlpha" operator="out"/>
<feColorMatrix type="matrix" values="0 0 0 0 0 0 0 0 0 0 0 0 0 0 0 0 0 0 0.3 0"/>
<feBlend mode="normal" in2="BackgroundImageFix" result="effect1_dropShadow_2954_1538"/>
<feBlend mode="normal" in="SourceGraphic" in2="effect1_dropShadow_2954_1538" result="shape"/>
</filter>
</defs>
</svg>
