<svg width="25" height="25" viewBox="0 0 25 25" fill="none" xmlns="http://www.w3.org/2000/svg">
<g id="local_shipping">
<mask id="mask0_2288_2427" style="mask-type:alpha" maskUnits="userSpaceOnUse" x="0" y="0" width="25" height="25">
<rect id="Bounding box" width="25" height="25" transform="matrix(-1 0 0 1 25 0)" fill="#0B46C1"/>
</mask>
<g mask="url(#mask0_2288_2427)">
<path id="local_shipping_2" d="M18.75 20.8346C19.6181 20.8346 20.3559 20.5308 20.9636 19.9232C21.5712 19.3155 21.875 18.5777 21.875 17.7096H23.9584V6.2513C23.9584 5.67839 23.7544 5.18793 23.3464 4.77995C22.9384 4.37196 22.448 4.16797 21.875 4.16797H7.29171V8.33464H4.16671L1.04171 12.5013V17.7096H3.12504C3.12504 18.5777 3.42886 19.3155 4.0365 19.9232C4.64414 20.5308 5.38199 20.8346 6.25004 20.8346C7.1181 20.8346 7.85594 20.5308 8.46358 19.9232C9.07122 19.3155 9.37504 18.5777 9.37504 17.7096H15.625C15.625 18.5777 15.9289 19.3155 16.5365 19.9232C17.1441 20.5308 17.882 20.8346 18.75 20.8346ZM18.75 18.7513C18.4549 18.7513 18.2075 18.6515 18.0079 18.4518C17.8082 18.2522 17.7084 18.0048 17.7084 17.7096C17.7084 17.4145 17.8082 17.1671 18.0079 16.9674C18.2075 16.7678 18.4549 16.668 18.75 16.668C19.0452 16.668 19.2926 16.7678 19.4922 16.9674C19.6919 17.1671 19.7917 17.4145 19.7917 17.7096C19.7917 18.0048 19.6919 18.2522 19.4922 18.4518C19.2926 18.6515 19.0452 18.7513 18.75 18.7513ZM21.875 15.6263H21.0417C20.7466 15.3138 20.408 15.0621 20.0261 14.8711C19.6441 14.6801 19.2188 14.5846 18.75 14.5846C18.2813 14.5846 17.8559 14.6801 17.474 14.8711C17.0921 15.0621 16.7535 15.3138 16.4584 15.6263H9.37504V6.2513H21.875V15.6263ZM6.25004 18.7513C5.9549 18.7513 5.70751 18.6515 5.50785 18.4518C5.3082 18.2522 5.20837 18.0048 5.20837 17.7096C5.20837 17.4145 5.3082 17.1671 5.50785 16.9674C5.70751 16.7678 5.9549 16.668 6.25004 16.668C6.54518 16.668 6.79258 16.7678 6.99223 16.9674C7.19188 17.1671 7.29171 17.4145 7.29171 17.7096C7.29171 18.0048 7.19188 18.2522 6.99223 18.4518C6.79258 18.6515 6.54518 18.7513 6.25004 18.7513ZM7.29171 13.543H2.86462L5.20837 10.418H7.29171V13.543Z" fill="#0B46C1"/>
</g>
</g>
</svg>
