<svg width="30" height="30" viewBox="0 0 30 30" fill="none" xmlns="http://www.w3.org/2000/svg">
<circle cx="15" cy="15" r="15" fill="#8D9EFF" fill-opacity="0.1"/>
<mask id="mask0_1747_2721" style="mask-type:alpha" maskUnits="userSpaceOnUse" x="5" y="5" width="20" height="19">
<rect x="5" y="5.5" width="20" height="18" fill="#D9D9D9"/>
</mask>
<g mask="url(#mask0_1747_2721)">
<path d="M15 14.8333C15.4584 14.8333 15.8507 14.6701 16.1771 14.3438C16.5035 14.0174 16.6667 13.625 16.6667 13.1667C16.6667 12.7083 16.5035 12.316 16.1771 11.9896C15.8507 11.6632 15.4584 11.5 15 11.5C14.5417 11.5 14.1493 11.6632 13.823 11.9896C13.4966 12.316 13.3334 12.7083 13.3334 13.1667C13.3334 13.625 13.4966 14.0174 13.823 14.3438C14.1493 14.6701 14.5417 14.8333 15 14.8333ZM15 20.9583C16.6945 19.4028 17.9514 17.9896 18.7709 16.7188C19.5903 15.4479 20 14.3194 20 13.3333C20 11.8194 19.5174 10.5799 18.5521 9.61458C17.5868 8.64931 16.4028 8.16667 15 8.16667C13.5973 8.16667 12.4132 8.64931 11.448 9.61458C10.4827 10.5799 10 11.8194 10 13.3333C10 14.3194 10.4098 15.4479 11.2292 16.7188C12.0487 17.9896 13.3056 19.4028 15 20.9583ZM15 23.1667C12.7639 21.2639 11.0938 19.4965 9.98962 17.8646C8.88546 16.2326 8.33337 14.7222 8.33337 13.3333C8.33337 11.25 9.00351 9.59028 10.3438 8.35417C11.6841 7.11806 13.2362 6.5 15 6.5C16.7639 6.5 18.316 7.11806 19.6563 8.35417C20.9966 9.59028 21.6667 11.25 21.6667 13.3333C21.6667 14.7222 21.1146 16.2326 20.0105 17.8646C18.9063 19.4965 17.2362 21.2639 15 23.1667Z" fill="#8D9EFF"/>
</g>
</svg>
