<svg width="152" height="42" viewBox="0 0 152 42" fill="none" xmlns="http://www.w3.org/2000/svg">
<path fill-rule="evenodd" clip-rule="evenodd" d="M14.6035 31.1019C14.6035 32.4824 15.7214 33.5496 17.1005 33.4856C18.4795 33.4215 19.5975 32.2504 19.5975 30.8699V24.2629L27.0039 22.6568V41.4938C25.4413 41.8252 23.8164 42 22.1485 42C9.91621 42 0 32.598 0 21C0 11.914 6.0859 4.17577 14.6035 1.24995V20.4918L5.86258 22.3873C4.58185 22.665 3.73934 23.9344 3.98079 25.2224C4.22224 26.5105 5.45621 27.3295 6.73694 27.0518L14.6035 25.3459V31.1019ZM31.9946 39.816C39.2862 36.3793 44.297 29.2445 44.297 21C44.297 9.40202 34.3807 0 22.1485 0C21.2857 0 20.4345 0.0467713 19.5975 0.137786V19.4088L27.0039 17.8027V11.1208C27.0039 9.74114 28.1211 8.57083 29.4993 8.50681C30.8774 8.44279 31.9946 9.50931 31.9946 10.8889V16.7204L36.7448 15.6903C38.0255 15.4126 39.2595 16.2317 39.5009 17.5197C39.7424 18.8078 38.8999 20.0771 37.6191 20.3548L31.9946 21.5746V39.816Z" fill="#FF5D25"/>
<path d="M62.0755 34.9517C60.1169 34.9517 58.3391 34.6234 56.742 33.9667C55.1751 33.2815 53.9397 32.3393 53.0357 31.1402C52.1317 29.9411 51.6797 28.585 51.6797 27.0718V21.0335C51.6797 19.4918 52.1166 18.0928 52.9905 16.8366C53.8945 15.5804 55.1299 14.5954 56.6968 13.8816C58.2637 13.1393 60.0566 12.7682 62.0755 12.7682C64.0945 12.7682 65.8874 13.1393 67.4543 13.8816C69.0513 14.5954 70.2868 15.5804 71.1606 16.8366C72.0646 18.0928 72.5166 19.4918 72.5166 21.0335V27.0718C72.5166 28.585 72.0496 29.9411 71.1154 31.1402C70.2114 32.3393 68.9609 33.2815 67.3639 33.9667C65.797 34.6234 64.0342 34.9517 62.0755 34.9517ZM62.0755 30.3694C63.5822 30.3694 64.7574 30.0411 65.6011 29.3844C66.475 28.7278 66.9119 27.8427 66.9119 26.7292V21.2904C66.9119 20.1199 66.475 19.1777 65.6011 18.464C64.7574 17.7216 63.5822 17.3505 62.0755 17.3505C60.599 17.3505 59.4239 17.7216 58.55 18.464C57.6761 19.1777 57.2392 20.1199 57.2392 21.2904V26.7292C57.2392 27.8427 57.6761 28.7278 58.55 29.3844C59.4239 30.0411 60.599 30.3694 62.0755 30.3694Z" fill="#D9D8D8"/>
<path d="M78.3272 8.31435C78.3272 7.00105 78.8093 5.98751 79.7736 5.27376C80.7378 4.56 82.124 4.20312 83.9319 4.20312V15.3377C83.5402 15.7374 83.1786 16.1942 82.8471 16.7081L83.1183 16.8794C85.1975 14.1386 87.8492 12.7682 91.0734 12.7682C92.6102 12.7682 93.9662 13.0965 95.1414 13.7532C96.3166 14.4098 97.2206 15.3092 97.8533 16.4512C98.5163 17.5932 98.8477 18.8779 98.8477 20.3054V31.697C98.8477 32.839 98.3807 33.6669 97.4466 34.1808C96.5124 34.6947 95.0962 34.9517 93.1978 34.9517V21.0763C93.1978 19.9914 92.8513 19.1063 92.1582 18.4211C91.4953 17.7359 90.516 17.3933 89.2203 17.3933C87.6835 17.3933 86.4179 17.8501 85.4235 18.7637C84.4291 19.6488 83.9319 20.7622 83.9319 22.1041V31.697C83.9319 32.839 83.4649 33.6669 82.5307 34.1808C81.5966 34.6947 80.1954 34.9517 78.3272 34.9517V8.31435Z" fill="#D9D8D8"/>
<path d="M114.576 34.9517C112.617 34.9517 110.839 34.6234 109.242 33.9667C107.675 33.2815 106.44 32.3393 105.536 31.1402C104.632 29.9411 104.18 28.585 104.18 27.0718V21.0335C104.18 19.4918 104.617 18.0928 105.491 16.8366C106.395 15.5804 107.63 14.5954 109.197 13.8816C110.764 13.1393 112.557 12.7682 114.576 12.7682C116.595 12.7682 118.388 13.1393 119.954 13.8816C121.551 14.5954 122.787 15.5804 123.661 16.8366C124.565 18.0928 125.017 19.4918 125.017 21.0335V27.0718C125.017 28.585 124.55 29.9411 123.616 31.1402C122.712 32.3393 121.461 33.2815 119.864 33.9667C118.297 34.6234 116.534 34.9517 114.576 34.9517ZM114.576 30.3694C116.082 30.3694 117.258 30.0411 118.101 29.3844C118.975 28.7278 119.412 27.8427 119.412 26.7292V21.2904C119.412 20.1199 118.975 19.1777 118.101 18.464C117.258 17.7216 116.082 17.3505 114.576 17.3505C113.099 17.3505 111.924 17.7216 111.05 18.464C110.176 19.1777 109.739 20.1199 109.739 21.2904V26.7292C109.739 27.8427 110.176 28.7278 111.05 29.3844C111.924 30.0411 113.099 30.3694 114.576 30.3694Z" fill="#D9D8D8"/>
<path d="M130.827 8.31435C130.827 7.00105 131.309 5.98751 132.274 5.27376C133.238 4.56 134.624 4.20312 136.432 4.20312V15.3377C136.04 15.7374 135.679 16.1942 135.347 16.7081L135.618 16.8794C137.698 14.1386 140.349 12.7682 143.574 12.7682C145.11 12.7682 146.466 13.0965 147.642 13.7532C148.817 14.4098 149.721 15.3092 150.354 16.4512C151.016 17.5932 151.348 18.8779 151.348 20.3054V31.697C151.348 32.839 150.881 33.6669 149.947 34.1808C149.013 34.6947 147.596 34.9517 145.698 34.9517V21.0763C145.698 19.9914 145.351 19.1063 144.658 18.4211C143.995 17.7359 143.016 17.3933 141.72 17.3933C140.184 17.3933 138.918 17.8501 137.924 18.7637C136.929 19.6488 136.432 20.7622 136.432 22.1041V31.697C136.432 32.839 135.965 33.6669 135.031 34.1808C134.097 34.6947 132.696 34.9517 130.827 34.9517V8.31435Z" fill="#D9D8D8"/>
</svg>
