<svg width="25" height="25" viewBox="0 0 25 25" fill="none" xmlns="http://www.w3.org/2000/svg">
<g id="precision_manufacturing">
<mask id="mask0_2288_2436" style="mask-type:alpha" maskUnits="userSpaceOnUse" x="0" y="0" width="25" height="25">
<rect id="Bounding box" width="25" height="25" fill="#D9D9D9"/>
</mask>
<g mask="url(#mask0_2288_2436)">
<path id="precision_manufacturing_2" d="M5.70097 21.8746C4.83802 21.8746 4.13847 21.1751 4.13847 20.3121C4.13847 19.4492 4.83802 18.7496 5.70097 18.7496H7.36763L4.71139 10.0517C4.24264 9.79128 3.85635 9.40934 3.55253 8.90587C3.24871 8.40239 3.0968 7.8642 3.0968 7.29128C3.0968 6.42323 3.40062 5.68538 4.00826 5.07774C4.6159 4.4701 5.35375 4.16628 6.2218 4.16628C6.89889 4.16628 7.50218 4.3616 8.0317 4.75222C8.56121 5.14285 8.93013 5.64198 9.13847 6.24962H12.4718V5.20795C12.4718 4.91281 12.5716 4.66542 12.7713 4.46576C12.9709 4.26611 13.2183 4.16628 13.5135 4.16628C13.6697 4.16628 13.8216 4.20101 13.9692 4.27045C14.1168 4.33989 14.2426 4.44406 14.3468 4.58295L16.1176 2.91628C16.2739 2.76003 16.4605 2.66021 16.6775 2.6168C16.8945 2.5734 17.1072 2.60378 17.3156 2.70795L21.3781 4.58295C21.5864 4.68712 21.7296 4.83903 21.8077 5.03868C21.8859 5.23833 21.8815 5.43364 21.7947 5.62462C21.6906 5.83295 21.5386 5.9675 21.339 6.02826C21.1393 6.08903 20.944 6.07601 20.7531 5.9892L17.0031 4.27045L14.5551 6.56212V8.02045L17.0031 10.26L20.7531 8.54128C20.944 8.45448 21.1437 8.4458 21.352 8.51524C21.5603 8.58469 21.7079 8.71489 21.7947 8.90587C21.8989 9.1142 21.9076 9.31385 21.8208 9.50483C21.734 9.6958 21.5864 9.84337 21.3781 9.94753L17.3156 11.8746C17.1072 11.9788 16.8945 12.0092 16.6775 11.9658C16.4605 11.9224 16.2739 11.8225 16.1176 11.6663L14.3468 9.99962C14.2426 10.1038 14.1168 10.1993 13.9692 10.2861C13.8216 10.3729 13.6697 10.4163 13.5135 10.4163C13.2183 10.4163 12.9709 10.3165 12.7713 10.1168C12.5716 9.91715 12.4718 9.66976 12.4718 9.37462V8.33295H9.13847C9.08638 8.47184 9.02996 8.60205 8.9692 8.72358C8.90843 8.8451 8.82597 8.97531 8.7218 9.1142L13.9301 18.7496H16.1176C16.9806 18.7496 17.6801 19.4492 17.6801 20.3121C17.6801 21.1751 16.9806 21.8746 16.1176 21.8746H5.70097ZM6.2218 8.33295C6.51694 8.33295 6.76434 8.23312 6.96399 8.03347C7.16364 7.83382 7.26347 7.58642 7.26347 7.29128C7.26347 6.99614 7.16364 6.74875 6.96399 6.5491C6.76434 6.34944 6.51694 6.24962 6.2218 6.24962C5.92666 6.24962 5.67927 6.34944 5.47961 6.5491C5.27996 6.74875 5.18014 6.99614 5.18014 7.29128C5.18014 7.58642 5.27996 7.83382 5.47961 8.03347C5.67927 8.23312 5.92666 8.33295 6.2218 8.33295ZM9.50305 18.7496H11.5343L7.05513 10.4163H6.95097L9.50305 18.7496Z" fill="#609966"/>
</g>
</g>
</svg>
