<svg width="29" height="30" viewBox="0 0 29 30" fill="none" xmlns="http://www.w3.org/2000/svg">
<rect y="0.804688" width="28.3923" height="28.3923" rx="8" fill="#FF9209"/>
<path d="M15.2864 8.71487C15.3293 8.72209 15.373 8.72945 15.4152 8.73696C16.1212 9.01942 16.639 9.41286 16.9904 9.88583C17.3483 10.3674 17.5533 10.9576 17.588 11.6551C17.6454 12.8117 17.1146 13.7843 16.034 14.4331C14.8287 15.1567 13.2899 14.982 12.1967 13.9374C11.2609 13.0432 11.0051 11.4682 11.6245 10.2648C12.2365 9.07567 13.7291 8.37902 15.0533 8.67232C15.1159 8.68618 15.1996 8.70027 15.2864 8.71487Z" stroke="#F9FAFD"/>
<path d="M9.40203 22.6165C8.86785 22.2774 8.89077 21.8123 8.95675 21.3567C9.33882 18.7188 11.599 16.6685 14.2627 16.5296C16.658 16.4047 19.0435 18.1934 19.7061 20.6361C19.805 21.0009 19.8134 21.3933 19.8373 21.7745C19.8642 22.2047 19.6971 22.5966 19.2462 22.618C18.7826 22.64 18.6054 22.2416 18.6009 21.8223C18.5888 20.7029 18.091 19.8177 17.3421 19.0293C16.1993 17.8263 14.7887 17.6457 13.2831 18.0164C11.7217 18.4009 10.8028 19.4504 10.3423 20.9956C10.1697 21.5748 10.5538 22.5259 9.40203 22.6165Z" fill="#F7F9FD"/>
</svg>
