<svg width="50" height="50" viewBox="0 0 50 50" fill="none" xmlns="http://www.w3.org/2000/svg">
<rect width="50" height="50" fill="black"/>
<path d="M-3755 -6932H23232V6894H-3755V-6932Z" fill="#D9D9D9"/>
<g clip-path="url(#clip0_23_2)">
<rect width="1440" height="7711" transform="translate(-579 -3062)" fill="white"/>
<rect x="-105" y="-170" width="428" height="550" rx="12" fill="url(#paint0_linear_23_2)"/>
<rect x="-55" y="-115" width="328" height="200" rx="10" stroke="url(#paint1_linear_23_2)" stroke-width="2"/>
<rect x="-29.5" y="-34.5" width="277" height="199" rx="11.5" fill="white" stroke="#EAEAEE"/>
<circle cx="25" cy="25" r="25" fill="#FF5D25" fill-opacity="0.1"/>
<circle cx="25" cy="25" r="24.5" stroke="#FF5D25" stroke-opacity="0.5"/>
<path d="M4.03819 31.6785C2.45952 32.1815 1.57125 33.8792 2.25959 35.3863C3.79353 38.7448 6.05804 41.7338 8.9019 44.1272C12.5137 47.167 16.9123 49.1221 21.5889 49.7662C26.2655 50.4103 31.0289 49.7172 35.3279 47.7669C39.627 45.8167 43.286 42.6892 45.8817 38.7461C48.4774 34.803 49.9036 30.2056 49.9953 25.4858C50.087 20.7659 48.8405 16.1166 46.4 12.0756C43.9595 8.03468 40.4248 4.7673 36.2047 2.65152C32.8819 0.985593 29.2412 0.087239 25.5498 0.00603288C23.8934 -0.0304075 22.6852 1.45667 22.8473 3.10557L23.2387 7.08638C23.4008 8.73528 24.879 9.90924 26.5273 10.078C28.3284 10.2623 30.0896 10.7721 31.7228 11.5909C34.2549 12.8604 36.3757 14.8208 37.84 17.2454C39.3043 19.6699 40.0522 22.4596 39.9972 25.2915C39.9421 28.1234 39.0864 30.8818 37.529 33.2477C35.9716 35.6135 33.7762 37.49 31.1968 38.6602C28.6173 39.8303 25.7593 40.2462 22.9533 39.8597C20.1474 39.4732 17.5082 38.3002 15.3411 36.4763C13.9433 35.2999 12.7788 33.8837 11.8974 32.3022C11.0908 30.8549 9.42809 29.9613 7.84942 30.4642L4.03819 31.6785Z" fill="#FF5D25"/>
</g>
<defs>
<linearGradient id="paint0_linear_23_2" x1="109" y1="-170" x2="109" y2="380" gradientUnits="userSpaceOnUse">
<stop stop-color="#FEF0EB"/>
<stop offset="1" stop-color="#F3F0FF"/>
</linearGradient>
<linearGradient id="paint1_linear_23_2" x1="-41" y1="-115" x2="261.789" y2="181.057" gradientUnits="userSpaceOnUse">
<stop stop-color="#FF865C"/>
<stop offset="1" stop-color="#FF5D25" stop-opacity="0"/>
</linearGradient>
<clipPath id="clip0_23_2">
<rect width="1440" height="7711" fill="white" transform="translate(-579 -3062)"/>
</clipPath>
</defs>
</svg>
