<svg width="18" height="18" viewBox="0 0 18 18" fill="none" xmlns="http://www.w3.org/2000/svg">
<rect width="18" height="18" fill="black"/>
<path d="M-4419 -6898H22568V6928H-4419V-6898Z" fill="#D9D9D9"/>
<g clip-path="url(#clip0_23_2)">
<rect width="1440" height="7711" transform="translate(-1243 -3028)" fill="white"/>
<rect x="-331" y="-136" width="428" height="550" rx="12" fill="url(#paint0_linear_23_2)"/>
<rect x="-279.5" y="-85.5" width="307" height="346" rx="11.5" fill="white" stroke="#EAEAEE"/>
<rect x="-299.5" y="-85.5" width="347" height="328" rx="11.5" fill="white" stroke="#EAEAEE"/>
<rect x="-279.5" y="-5.5" width="307" height="29" rx="4.5" stroke="#EAEAEE"/>
<mask id="mask0_23_2" style="mask-type:alpha" maskUnits="userSpaceOnUse" x="0" y="0" width="18" height="18">
<rect width="18" height="18" fill="#D9D9D9"/>
</mask>
<g mask="url(#mask0_23_2)">
<mask id="mask1_23_2" style="mask-type:alpha" maskUnits="userSpaceOnUse" x="2" y="2" width="14" height="14">
<rect x="2" y="2" width="14" height="14" fill="#D9D9D9"/>
</mask>
<g mask="url(#mask1_23_2)">
<path d="M8.1972 10.7632C8.38781 10.9538 8.69686 10.9538 8.88748 10.7632L11.4225 8.22819C11.6509 7.99982 11.6475 7.62855 11.4151 7.4043C11.1885 7.18564 10.8285 7.18885 10.6058 7.41152L8.54234 9.475L7.69651 8.62917C7.47099 8.40365 7.10535 8.40365 6.87984 8.62917C6.65432 8.85468 6.65432 9.22032 6.87984 9.44583L8.1972 10.7632ZM8.83401 14.6667C8.02706 14.6667 7.26873 14.5135 6.55901 14.2073C5.84928 13.901 5.23192 13.4854 4.70692 12.9604C4.18192 12.4354 3.7663 11.8181 3.46005 11.1083C3.1538 10.3986 3.00067 9.64028 3.00067 8.83333C3.00067 8.02639 3.1538 7.26806 3.46005 6.55833C3.7663 5.84861 4.18192 5.23125 4.70692 4.70625C5.23192 4.18125 5.84928 3.76563 6.55901 3.45938C7.26873 3.15313 8.02706 3 8.83401 3C9.64095 3 10.3993 3.15313 11.109 3.45938C11.8187 3.76563 12.4361 4.18125 12.9611 4.70625C13.4861 5.23125 13.9017 5.84861 14.208 6.55833C14.5142 7.26806 14.6673 8.02639 14.6673 8.83333C14.6673 9.64028 14.5142 10.3986 14.208 11.1083C13.9017 11.8181 13.4861 12.4354 12.9611 12.9604C12.4361 13.4854 11.8187 13.901 11.109 14.2073C10.3993 14.5135 9.64095 14.6667 8.83401 14.6667ZM8.83401 13.5C10.1368 13.5 11.2403 13.0479 12.1444 12.1438C13.0486 11.2396 13.5007 10.1361 13.5007 8.83333C13.5007 7.53056 13.0486 6.42708 12.1444 5.52292C11.2403 4.61875 10.1368 4.16667 8.83401 4.16667C7.53123 4.16667 6.42776 4.61875 5.52359 5.52292C4.61942 6.42708 4.16734 7.53056 4.16734 8.83333C4.16734 10.1361 4.61942 11.2396 5.52359 12.1438C6.42776 13.0479 7.53123 13.5 8.83401 13.5Z" fill="#65B741"/>
</g>
</g>
</g>
<defs>
<linearGradient id="paint0_linear_23_2" x1="-117" y1="-136" x2="-117" y2="414" gradientUnits="userSpaceOnUse">
<stop stop-color="#FEF0EB"/>
<stop offset="1" stop-color="#F3F0FF"/>
</linearGradient>
<clipPath id="clip0_23_2">
<rect width="1440" height="7711" fill="white" transform="translate(-1243 -3028)"/>
</clipPath>
</defs>
</svg>
