<svg width="26" height="25" viewBox="0 0 26 25" fill="none" xmlns="http://www.w3.org/2000/svg">
<g id="supervisor_account">
<mask id="mask0_2288_2447" style="mask-type:alpha" maskUnits="userSpaceOnUse" x="0" y="0" width="26" height="25">
<rect id="Bounding box" x="0.138672" width="25" height="25" fill="#D9D9D9"/>
</mask>
<g mask="url(#mask0_2288_2447)">
<path id="supervisor_account_2" d="M17.847 15.6263C17.1178 15.6263 16.5015 15.3746 15.998 14.8711C15.4946 14.3676 15.2428 13.7513 15.2428 13.0221C15.2428 12.293 15.4946 11.6766 15.998 11.1732C16.5015 10.6697 17.1178 10.418 17.847 10.418C18.5762 10.418 19.1925 10.6697 19.6959 11.1732C20.1994 11.6766 20.4512 12.293 20.4512 13.0221C20.4512 13.7513 20.1994 14.3676 19.6959 14.8711C19.1925 15.3746 18.5762 15.6263 17.847 15.6263ZM12.6387 20.8346V19.3763C12.6387 18.9596 12.7472 18.5733 12.9642 18.2174C13.1812 17.8615 13.4893 17.6055 13.8887 17.4492C14.5137 17.1888 15.1604 16.9935 15.8288 16.8633C16.4972 16.7331 17.1699 16.668 17.847 16.668C18.5241 16.668 19.1968 16.7331 19.8652 16.8633C20.5336 16.9935 21.1803 17.1888 21.8053 17.4492C22.2046 17.6055 22.5128 17.8615 22.7298 18.2174C22.9468 18.5733 23.0553 18.9596 23.0553 19.3763V20.8346H12.6387ZM10.5553 12.5013C9.40949 12.5013 8.42858 12.0933 7.61261 11.2773C6.79664 10.4614 6.38865 9.48047 6.38865 8.33464C6.38865 7.1888 6.79664 6.2079 7.61261 5.39193C8.42858 4.57595 9.40949 4.16797 10.5553 4.16797C11.7012 4.16797 12.6821 4.57595 13.498 5.39193C14.314 6.2079 14.722 7.1888 14.722 8.33464C14.722 9.48047 14.314 10.4614 13.498 11.2773C12.6821 12.0933 11.7012 12.5013 10.5553 12.5013ZM2.22198 20.8346V17.918C2.22198 17.3277 2.36955 16.7852 2.66469 16.2904C2.95983 15.7956 3.36782 15.418 3.88865 15.1576C4.93032 14.6367 6.01105 14.2374 7.13084 13.9596C8.25063 13.6819 9.39212 13.543 10.5553 13.543C11.163 13.543 11.7706 13.5951 12.3782 13.6992C12.9859 13.8034 13.5935 13.9249 14.2012 14.0638L12.4303 15.8346C12.1178 15.7478 11.8053 15.6914 11.4928 15.6654C11.1803 15.6393 10.8678 15.6263 10.5553 15.6263C9.54837 15.6263 8.56313 15.7478 7.59959 15.9909C6.63605 16.2339 5.71157 16.5812 4.82615 17.0326C4.65254 17.1194 4.52233 17.2409 4.43553 17.3971C4.34872 17.5534 4.30532 17.727 4.30532 17.918V18.7513H10.5553V20.8346H2.22198ZM10.5553 10.418C11.1282 10.418 11.6187 10.214 12.0267 9.80599C12.4347 9.398 12.6387 8.90755 12.6387 8.33464C12.6387 7.76172 12.4347 7.27127 12.0267 6.86328C11.6187 6.4553 11.1282 6.2513 10.5553 6.2513C9.9824 6.2513 9.49195 6.4553 9.08396 6.86328C8.67598 7.27127 8.47199 7.76172 8.47199 8.33464C8.47199 8.90755 8.67598 9.398 9.08396 9.80599C9.49195 10.214 9.9824 10.418 10.5553 10.418Z" fill="#068DA9"/>
</g>
</g>
</svg>
